<svg xmlns="http://www.w3.org/2000/svg" viewBox="0 0 370 350"><defs><style>.cls-4{fill:#005382}.cls-5{fill:#006089}.cls-6{fill:#046764}.cls-7{fill:#0086b4}.cls-8{fill:#007593}.cls-10{fill:#c2e7ef}.cls-12{fill:#eb9859}.cls-13{fill:#fff}.cls-14{fill:#e63f31}.cls-16{fill:#58595b}.cls-19{fill:#414042}.cls-20{fill:#004767}</style></defs><g style="isolation:isolate"><g id="Layer_1" data-name="Layer 1"><path d="M351.332 173.926a166.47 166.47 0 11-166.47-166.46 166.46 166.46 0 01166.47 166.46z" opacity=".2" fill="#44c7f4"/><path d="M318.891 174.996a133.39 133.39 0 01-9.96 50.75q-.96 2.355-2.01 4.66c-.5 1.08-1 2.16-1.52 3.22q-1.545 3.18-3.26 6.27a1.84 1.84 0 00-.15.27c-.89 1.57-1.79 3.13-2.74 4.66-.19.32-.38.64-.58.96q-2.94 4.725-6.28 9.17a134.05 134.05 0 01-62.15 46.09c-2.37.86-4.77 1.64-7.2 2.36-.39.11-.81.24-1.27.37-.9.26-1.81.5-2.72.74l-.32.09h-.01c-.12.03-.24.06-.37.09-.57.15-1.14.29-1.71.43q-5.444 1.32-11.06 2.18c-.53.09-1.07.16-1.6.24-1.47.21-2.95.39-4.44.55-1.69.19-3.39.34-5.1.46q-4.68.33-9.44.33a133.89 133.89 0 01-20.75-1.6q-3.615-.555-7.15-1.31-3.39-.72-6.72-1.61c-.38-.1-.77-.21-1.15-.32-.71-.2-1.43-.4-2.14-.61-.71-.2-1.42-.42-2.12-.64-.56-.17-1.11-.35-1.66-.53-.42-.13-.83-.27-1.25-.41l-1.29-.45c-.57-.2-1.13-.4-1.69-.6-.73-.27-1.45-.54-2.17-.82-.74-.28-1.46-.57-2.19-.86-.67-.27-1.35-.55-2.02-.84-.05-.02-.09-.04-.14-.06-.93-.4-1.86-.8-2.78-1.22q-2.234-1.02-4.42-2.11c-.31-.15-.62-.31-.93-.47q-3.63-1.83-7.12-3.89-3.525-2.07-6.9-4.34-2.01-1.35-3.98-2.78l-.57-.42q-5.414-3.975-10.41-8.47c-.19-.16-.37-.33-.54-.49-1.02-.92-2.02-1.86-3.01-2.82-.47-.45-.93-.91-1.39-1.37-.18-.17-.35-.34-.52-.52a133.294 133.294 0 01-10.05-11.33.56.56 0 00-.06-.08c-.13-.16-.25-.32-.37-.47q-.75-.96-1.47-1.92-.63-.825-1.23-1.65a133.873 133.873 0 01-8.99-14.08c-.12-.21-.23-.42-.34-.62a132.15 132.15 0 01-6.29-13.15c-.06-.15-.12-.3-.19-.45-1.14-2.81-2.2-5.67-3.16-8.58q-.794-2.4-1.49-4.85a.329.329 0 01-.04-.14q-.96-3.27-1.72-6.6a134.648 134.648 0 01-3.47-30.05v-.36c0-.25 0-.51.01-.76-.01-.37 0-.75.01-1.12a133.854 133.854 0 0172.71-117.25q4.35-2.235 8.87-4.16c.18-.07.36-.15.55-.23a132.798 132.798 0 0127.32-8.14c.39-.07.79-.14 1.19-.21q5.596-.99 11.34-1.49 5.88-.51 11.88-.52a133.24 133.24 0 0166.45 17.63q2.956 1.695 5.8 3.52 4.605 2.955 8.95 6.28a133.81 133.81 0 0115.58 13.94c1.01 1.05 2 2.13 2.98 3.22q2.566 2.865 4.97 5.88a133.918 133.918 0 0114.2 21.87c.2.37.39.75.58 1.12a130.272 130.272 0 016.84 16.05 133.013 133.013 0 017.06 32.92q.48 5.655.48 11.45z" fill="#44c7f4"/><path class="cls-4" d="M50.773 94.11h14.133V227.4H50.773z"/><path class="cls-5" d="M299.252 225.576v19.25c-.19.32-.38.64-.58.96q-2.94 4.725-6.28 9.17a134.05 134.05 0 01-62.15 46.09c-2.37.86-4.77 1.64-7.2 2.36-.39.11-.81.24-1.27.37-.9.26-1.81.5-2.72.74l-.32.09h-.01l-.37.71v-.62c-.57.15-1.14.29-1.71.43l1.58-14.59.13-1.17.7-6.46 2.35-21.73.08-.73.61-5.58 1.57-14.56.09-.75 1.51-13.98z"/><path class="cls-6" d="M71.312 261.156h.7v.34c-.11.01-.23.01-.35.01-.12 0-.24 0-.35-.01z"/><path class="cls-6" d="M168.851 225.576v64.96h-51.54q-3.525-2.07-6.9-4.34-2.01-1.35-3.98-2.78l-.57-.42q-5.414-3.975-10.41-8.47c-.19-.16-.37-.33-.54-.49-1.02-.92-2.02-1.86-3.01-2.82-.47-.45-.93-.91-1.39-1.37-.18-.17-.35-.34-.52-.52a133.294 133.294 0 01-10.05-11.33c-.03.03-.06.07-.09.1l.03-.18c-.13-.16-.25-.32-.37-.47q-.75-.96-1.47-1.92h-16.85v-29.95z"/><path class="cls-7" d="M71.312 261.156h.7v.34c-.11.01-.23.01-.35.01-.12 0-.24 0-.35-.01z"/><path class="cls-7" d="M91.901 251.296v19.92c-.47-.45-.93-.91-1.39-1.37-.18-.17-.35-.34-.52-.52a133.294 133.294 0 01-10.05-11.33c-.03.03-.06.07-.09.1l.03-.18c-.13-.16-.25-.32-.37-.47q-.75-.96-1.47-1.92h-20.45l-.94-1.63-.01-.02-14.48-25.19a25.662 25.662 0 0112.27-3.11h11.74a25.728 25.728 0 0125.73 25.72z"/><path class="cls-8" d="M320.492 113.456l-9.14 17.17-50.55 94.95-4.59 8.62-6.49 12.18-.01.02-4.55 8.56-12.68 23.81-2.16 4.06-11.27 21.17-.32.61h-.01l-.37.71v-.62c-.57.15-1.14.29-1.71.43q-5.445 1.32-11.06 2.18c-.53.09-1.07.16-1.6.24-1.47.21-2.95.39-4.44.55-1.69.19-3.39.34-5.1.46q-4.68.33-9.44.33a133.89 133.89 0 01-20.75-1.6q-3.616-.555-7.15-1.31-3.39-.72-6.72-1.61c-.38-.1-.77-.21-1.15-.32-.71-.2-1.43-.4-2.14-.61-.71-.2-1.42-.42-2.12-.64-.56-.17-1.11-.35-1.66-.53-.42-.13-.83-.27-1.25-.41l-1.29-.45c-.57-.2-1.13-.4-1.69-.6-.73-.27-1.45-.54-2.17-.82-.74-.28-1.46-.57-2.19-.86-.67-.27-1.35-.55-2.02-.84-.05-.02-.09-.04-.14-.06-.93-.4-1.86-.8-2.78-1.22q-2.235-1.02-4.42-2.11c-.31-.15-.62-.31-.93-.47l.41-3.89.47-4.42 6.03-18.96 2.23-7.03 1.46-4.6.21-.66.32-.99 1.55-4.88.38-1.2.5-1.57 6.57-20.65 7.89-24.83.01-.03 4.79-15.06 11.6-36.5 14.75-35.7z"/><path class="cls-4" d="M317.305 113.456h6.756c14.208 0 22.53 11.518 18.588 25.725s-18.655 25.724-32.862 25.724a9.568 9.568 0 00-8.631 6.757l-17.367 62.595c-2.405 8.668-11.38 15.694-20.047 15.694h-15.014l23.595-85.046 7.137-25.724c3.942-14.207 18.655-25.725 32.862-25.725z"/><path class="cls-8" d="M208.942 139.176a35.765 35.765 0 01-12.58 18.19c-5.95 4.66-13.17 7.54-20.28 7.54a8.814 8.814 0 00-5.32 1.98 9.367 9.367 0 00-3.31 4.78l-3.8 13.85-10.98 40.06-5.92 21.56-.3 1.11-.3 1.1-.25.91-.99 3.62-.2.73-.07.26-.19.66-1.38 5.04-2.27 8.28-.19.69-1.41 5.14-.28 1.02-.18.67-2.9 10.58-.99 3.59-1.86 6.8c-.09.32-.19.64-.29.95-.05-.02-.09-.04-.14-.06-.93-.4-1.86-.8-2.78-1.22q-2.235-1.02-4.42-2.11c-.31-.15-.62-.31-.93-.47q-3.63-1.83-7.12-3.89-3.525-2.07-6.9-4.34-2.01-1.35-3.98-2.78l-.57-.42 7.62-27.47.18-.66.28-.99 7.85-28.3 1.61-5.81.46-1.67.46-1.66v-.01l14.3-51.52 7.14-25.73c3.94-14.2 18.65-25.72 32.86-25.72h11.74c14.2 0 22.53 11.52 18.58 25.72z"/><path d="M222.871 254.866v35.67h-105.56q-3.525-2.07-6.9-4.34-2.01-1.35-3.98-2.78l-.57-.42q-5.414-3.975-10.41-8.47c-.19-.16-.37-.33-.54-.49-1.02-.92-2.02-1.86-3.01-2.82-.47-.45-.93-.91-1.39-1.37-.18-.17-.35-.34-.52-.52a133.294 133.294 0 01-10.05-11.33c-.03.03-.06.07-.09.1l.03-.18a3.81 3.81 0 011.6-2.39 3.903 3.903 0 01.44-.26 3.735 3.735 0 011.7-.4z" fill="#0094bc"/><path class="cls-10" d="M188.262 268.786a3.92 3.92 0 103.92 3.92 3.92 3.92 0 00-3.92-3.92zm0 7.14a3.22 3.22 0 113.22-3.22 3.224 3.224 0 01-3.22 3.22zM143.242 270.346a3.861 3.861 0 00-2.44-1.5 3.815 3.815 0 00-.68-.06 3.918 3.918 0 00-2.08 7.24 3.019 3.019 0 00.7.34 3.72 3.72 0 001.38.26 3.926 3.926 0 003.92-3.92 3.861 3.861 0 00-.8-2.36zm-3.12 5.58a3.168 3.168 0 01-1.2-.23 2.106 2.106 0 01-.42-.22 3.212 3.212 0 011.62-5.99 1.986 1.986 0 01.49.05 3.115 3.115 0 012.13 1.31 3.154 3.154 0 01.6 1.86 3.23 3.23 0 01-3.22 3.22zM91.982 268.786h-.08a3.859 3.859 0 00-1.91.54c.17.18.34.35.52.52a3.082 3.082 0 011.39-.36h.08a3.224 3.224 0 013.22 3.22 3.15 3.15 0 01-.29 1.33c.17.16.35.33.54.49a3.861 3.861 0 00.45-1.82 3.92 3.92 0 00-3.92-3.92z"/><path class="cls-5" d="M306.921 225.576v4.83c-.5 1.08-1 2.16-1.52 3.22q-1.545 3.18-3.26 6.27a1.84 1.84 0 00-.15.27c-.89 1.57-1.79 3.13-2.74 4.66-.19.32-.38.64-.58.96q-2.94 4.725-6.28 9.17h-62.15v-29.38z"/><path class="cls-7" d="M262.722 251.296a24.55 24.55 0 01-.27 3.66 25.706 25.706 0 01-25.45 22.07 6.73 6.73 0 00-4.52 1.74 6.653 6.653 0 00-2.16 4.06 5.062 5.062 0 00-.08.96v17.26c-2.37.86-4.77 1.64-7.2 2.36-.39.11-.81.24-1.27.37-.9.26-1.81.5-2.72.74l-.32.09h-.01l-.37.71v-.62c-.57.15-1.14.29-1.71.43q-5.445 1.32-11.06 2.18c-.53.09-1.07.16-1.6.24-1.47.21-2.95.39-4.44.55v-56.8a25.72 25.72 0 0125.72-25.72h11.74a25.568 25.568 0 0116.77 6.22 25.152 25.152 0 012.44 2.4 25.67 25.67 0 016.48 15.75c.02.44.03.9.03 1.35z"/><path class="cls-5" d="M308.932 225.746q-.96 2.355-2.01 4.66c-.5 1.08-1 2.16-1.52 3.22q-1.545 3.18-3.26 6.27a1.84 1.84 0 00-.15.27c-.89 1.57-1.79 3.13-2.74 4.66-.19.32-.38.64-.58.96q-2.94 4.725-6.28 9.17a134.327 134.327 0 01-23.85 24.68v-28.34q0-1.05.09-2.07a25.707 25.707 0 0125.63-23.65h11.74c.31 0 .61.01.92.02q1.02.03 2.01.15z"/><path class="cls-10" d="M230.242 249.656a11.551 11.551 0 10-11.89 11.84c.11.01.23.01.35.01s.24 0 .35-.01a10.732 10.732 0 002.35-.32 9.597 9.597 0 001.47-.45 11.555 11.555 0 007.37-10.48c.01-.1.01-.2.01-.3a2.712 2.712 0 00-.01-.29zm-7.37 10.31a11.436 11.436 0 01-1.39.48 11.093 11.093 0 01-2.78.36 10.855 10.855 0 110-21.71 10.636 10.636 0 014.96 1.21 10.845 10.845 0 01-.79 19.66z"/><path class="cls-10" d="M219.051 261.156v43.36l-.32.09h-.01l-.37.71v-44.16zM71.312 261.156v.34c.11.01.23.01.35.01.12 0 .24 0 .35-.01v-.34z"/><path d="M73.644 216.164h36.512a7.004 7.004 0 017.004 7.004v2.409H66.64v-2.41a7.004 7.004 0 017.004-7.003z" transform="rotate(-180 91.9 220.87)" fill="#05524e"/><path class="cls-12" d="M145.027 250.241l9.68-64.539 27.108-.581 2.874 65.827-39.662-.707z"/><path class="cls-12" d="M88.896 199.061l2.66-2.218a13.856 13.856 0 001.557-2.036c24.148 11.23 53.824 7.24 78.524-11.352l4.926 6.545c-16.538 12.447-35.166 18.923-53.271 19.27a75.593 75.593 0 01-37.224-8.849 13.711 13.711 0 002.828-1.36z"/><path class="cls-12" d="M176.327 185.054c17.418 29.458 47.302 44.722 76.802 39.54a330.074 330.074 0 00-3.494 8.728 74.604 74.604 0 01-26.707-1.904c-21.335-5.493-40.684-20.265-53.652-42.196z"/><path class="cls-13" d="M185.808 189.265l44.376-16.862 12.041-53.276 3.553-16.97 18.782-31.234-9.366-8.264-29.703 4.513-32.943 13.264-38.742-33.431-19.622-16.903-2.591 43.704-19.636 33.727 4.304 35.182 29.863 37.772 39.684 8.778z"/><path class="cls-14" d="M92.7 120.18c-13.304 20.635 1.749 30.355 1.749 30.355-.548-1.251.237-7.39.237-7.39 2.197 17.776 15.34 32.48 15.34 32.48-.698-2.166-1.04-12.862-1.04-12.862 1.56 12.056 13.908 22.684 13.908 22.684-1.403-1.78-2.318-12.376-2.318-12.376 4.235 9.671 9.862 15.29 13.787 18.282a24.002 24.002 0 004.68 2.91c.634.294 1.261.574 1.882.848l-.004.004-.12.064a43.2 43.2 0 019.208 3.795c-11.09-6.147-6.97-2.827.152-1.68 5.222.84 8.592 2.282 13.347 1.544a528.749 528.749 0 0129.643-3.73c10.889-1.07 17.452-3.486 27.412-6.15q3.107-.356 6.216-.693c3.768-2.524 7.58-4.86 11.612-7.04.657-.356 1.333-.64 2.004-.943a110.644 110.644 0 005.6-11.777c.76 2.584-.208 6.589-1.514 10.242a31.396 31.396 0 015.21-1.008c.043-.056.075-.11.12-.167a11.727 11.727 0 011.726-1.753q-.331.14-.658.284c4.45-9.802 4.705-21.816 4.705-21.816 3.203 4.302 1.187 16.929 1.187 16.929 13.755-18.384-5.926-48.827-5.926-48.827 5.576 3.982 13.45 18.954 13.45 18.954-1.974-15.455-18.356-30.977-18.356-30.977 23.475-30.12 23.354-43.985 23.354-43.985-25.352-12.623-56.63 1.811-56.63 1.811a41.042 41.042 0 00-30.897-15.852c6.63 2.1 11.892 8.731 11.892 8.731a133.475 133.475 0 00-25.414-7.753c-1.716-5.105-9.505-21.714-38.619-23.662 0 0-6.836 21.048-2.64 33.818-9.495 3.299-10.632 6.707-10.632 6.707l9.483-1.298-6.827 20.967a37.718 37.718 0 00-19.97 9.667c2.25-1.096 9.247.134 9.247.134-18.421 8.106-22.82 24.134-22.82 24.134a10.289 10.289 0 017.233-3.606zm132.686-43.785s20.437-10.527 33.224-3.974c0 0-6.978 17.91-17.45 24.615 0 0-6.432-12.87-15.774-20.641zm-77.809 32.469c3.81-14.662 19.152-33.315 31.28-30.165 12.127 3.151 16.448 26.912 12.64 41.575-3.81 14.663-17.146 21.2-29.274 18.049-12.127-3.15-18.454-14.797-14.646-29.46zM136.27 38.536c16.146 3.006 24.434 16.394 21.85 17.025-5.992 1.461-22.061 11.208-22.061 11.208-6.375-8.569.21-28.233.21-28.233z"/><path d="M186.728 203.07s-24.115 9.111-42.41-5.642z" style="mix-blend-mode:multiply" fill="#616262" opacity=".2"/><path class="cls-14" d="M256.228 154.837s-2.435 31.494-18.977 43.743c0 0 6.084-12.648 6.874-18.667 0 0-8.486 24.206-45.523 27.607a43.755 43.755 0 0017.935-12.084s-48.785 20.65-81.409-3.502l68.173-12.125s32.491-26.593 33.22-26.62c.73-.029 19.707 1.648 19.707 1.648z"/><path class="cls-13" d="M140.114 128.032c9.452 5.135-14.075 9.551-14.075 9.551s-4.41-7.529-5.168-13.852c-.756-6.326 9.793-.835 19.243 4.301z"/><path class="cls-14" d="M247.425 230.784c.546 2.907 1.576 7.947 4.83 9.001 6.27 2.05 2.26-8.26 1.242-11.283a78.912 78.912 0 006.864 10.046 23.55 23.55 0 004.64 4.595c1.313.886 4.665 2.66 5.918.77 1.243-1.876-1.415-5.405-2.502-6.856a21.666 21.666 0 00-13.028-8.089c3.794.686 7.607 1.284 11.446 1.656a55.911 55.911 0 007.336.317c1.89-.066 4.705-.056 6.14-1.559 4.045-4.24-8.478-5.828-10.437-6.083-7.679-.997-13.572.073-21.06 1.781l-.532.121c-.845-3.735-3.21-15.655-8.582-15.216-6.965.803 2.737 15.54 6.585 17.243zM90.353 200.604c-.89 2.82-2.518 7.7-5.874 8.356-6.472 1.282-1.254-8.473.12-11.351a78.915 78.915 0 01-8.02 9.15 23.551 23.551 0 01-5.158 4.005c-1.41.722-4.95 2.082-5.967.055-1.01-2.012 2.053-5.196 3.307-6.507a21.666 21.666 0 0113.904-6.467c-3.849.226-7.706.361-11.562.27a55.91 55.91 0 01-7.321-.565c-1.868-.293-4.665-.62-5.908-2.284-3.508-4.695 9.115-4.77 11.09-4.787 7.744-.068 13.466 1.7 20.696 4.295l.512.184c1.288-3.607 5.065-15.157 10.346-14.077 6.818 1.633-4.582 15.099-8.606 16.329z"/><path class="cls-13" d="M205.129 138.565c17.423-18.737 19.899 9.425 19.899 9.425-7.387-22.17-19.9-9.425-19.9-9.425z"/><path class="cls-13" d="M179.463 173.436c-12.295 2.295-26.594-.449-42.66-8.208a.936.936 0 11.813-1.686c19.733 9.53 36.65 11.335 50.284 5.362 17.413-7.627 24.132-25.867 25.776-31.275a.936.936 0 011.791.544 60.45 60.45 0 01-8.555 17.316 44.572 44.572 0 01-18.26 15.13 42.075 42.075 0 01-9.189 2.817z"/><path class="cls-16" d="M160.492 254.746c-.04.01-.27.04-.69.12-.61.12-1.6.32-2.91.66a80.12 80.12 0 00-13.82 5.04 91.886 91.886 0 00-11.73 6.59 93.583 93.583 0 00-20.93 19.04q-2.01-1.35-3.98-2.78a98.155 98.155 0 0127.14-23.29 94.133 94.133 0 019-4.6c.51-.23 1.02-.45 1.51-.66.21-.09.42-.18.63-.26.61-.26 1.2-.5 1.78-.73a79.263 79.263 0 0110.85-3.42c1.52-.35 2.41-.49 2.49-.5l.08.55.46 3.37zM178.012 252.746c-.81.32-1.72.69-2.7 1.13-.68.3-1.41.63-2.17.99a94.397 94.397 0 00-4.29 2.18 95.39 95.39 0 00-33.01 29.9c-.8 1.16-1.59 2.36-2.35 3.59q-1.936 3.075-3.71 6.47-2.235-1.02-4.42-2.11 1.17-2.25 2.41-4.36a101.748 101.748 0 0110.27-14.51c.15-.19.31-.37.46-.55.23-.27.46-.54.7-.8 1.17-1.34 2.35-2.61 3.54-3.83.16-.17.33-.34.5-.5a99.646 99.646 0 0118.6-14.82c.36-.23.73-.45 1.09-.66q.855-.525 1.68-.99c1.48-.85 2.9-1.62 4.24-2.29.61-.32 1.21-.61 1.78-.89.27-.13.54-.26.8-.38h.02c.8-.38 1.55-.72 2.27-1.03h.01c.88-.39 1.69-.73 2.44-1.02h.02c.02-.01.03-.02.05-.03l.01.03.44 1.13.45 1.13.11.29z"/><path fill="#929497" d="M187.532 249.806v5.72H57.591l-.94-1.63-.01-.02-14.48-25.19-27.79-48.33-.599-1.04 37.359-5.08 49.52-6.73 23.21 50.59 3.431 7.48 10.2 22.22.05.11 7.79.3h.009l1.111.04 22.399.85 4.871.19h.01l2.96.11 7.949.3 2.891.11z"/><path class="cls-13" d="M187.485 250.922l.086-2.227-49.305-1.879-36.948-80.528-87.697 11.923.301 2.208 86.06-11.701 36.831 80.273 50.672 1.931z"/><path style="mix-blend-mode:multiply" opacity=".5" fill="#231f20" d="M187.532 253.876v1.65H57.702l-1.051-1.63-.01-.02h130.891z"/><ellipse class="cls-13" cx="74.866" cy="216.189" rx="6.017" ry="11.293" transform="rotate(-22.391 74.866 216.19)"/><ellipse class="cls-14" cx="176.286" cy="126.536" rx="7.852" ry="3.737" transform="rotate(-67.775 176.286 126.536)"/><ellipse class="cls-13" cx="137.794" cy="109.684" rx="7.852" ry="3.737" transform="rotate(-67.775 137.794 109.684)"/><path class="cls-14" d="M284.517 92.112a92.115 92.115 0 002.202-5.2c-1.71-1.635-6.734-6.062-9.344.321-2.521 6.027 4.383 5.326 7.142 4.879z"/><path class="cls-19" d="M284.045 96.919a4.972 4.972 0 113.02-6.35 4.978 4.978 0 01-3.02 6.35zm-3.007-8.463a4.01 4.01 0 105.12 2.435 4.014 4.014 0 00-5.12-2.435z"/><path class="cls-14" d="M343.832 69.371a.08.08 0 00-.098-.062c-1.834-.683-9.862-2.001-9.862-2.001a24.586 24.586 0 013.96.04c-4.522-2.185-12.175-1.821-12.175-1.821.73-.5 5.125-1.144 5.125-1.144-6.704-2.539-15.918 2.124-15.918 2.124.808-1.273 4.517-3.866 4.517-3.866a22.14 22.14 0 00-11.038 5.91 18.692 18.692 0 012.693-3.375 33.322 33.322 0 00-8.518 7.03A36.953 36.953 0 00288.22 84.98s-7.01 20.563-15.108 21.194c0 0 15.602 2.485 24.33-9.634-1.431 2.252-4.487 8.146-1.313 14.079 0 0 14.07-36.01 49.046-40.875a5.334 5.334 0 01-1.344-.373z"/><path class="cls-14" d="M287.926 102.11a12.996 12.996 0 003.738 9.59s-.063-9.317 6.375-14.369l-1.337-2.223zM285.638 91.861l.808-2.03a11.993 11.993 0 01-.906 1.968zM272.18 107.643a1.704 1.704 0 01.024-2.527 2.006 2.006 0 012.714-.27 1.704 1.704 0 01-.024 2.527 2.11 2.11 0 01-2.714.27zM330.8 73.878c-4.102.831-10.124 3.605-18.544 10.696l-6.881 6.832s1.957-1.025 5.06-2.559a61.75 61.75 0 018.927-8.213 51.889 51.889 0 0111.438-6.756z"/><path class="cls-14" d="M319.666 81.239a61.532 61.532 0 00-7.371 6.521l.24-.054a28.712 28.712 0 008.78-2.464 25.38 25.38 0 01-3.39.252s7.082-2.169 10.212-3.96a23.221 23.221 0 01-3.354.412l-.24.054.24-.054c.16-.036 9.252-2.99 12.872-5.227l.24-.054a4.857 4.857 0 00-1.51 2.27c1.414-.063 1.644-1.291 1.99-2.377l.08-.018a15.543 15.543 0 00-.345 1.842c.117.9.741 2.945 1.825 1.022.373-.588-.384-2.1-.92-2.99l.08-.017s-1.39-2.464-5.43-2.486a45.347 45.347 0 00-14 7.328zM344.74 69.673c-.604 1.06-.567 2.732-2.24 2.77a6.984 6.984 0 012.24-2.77z"/><path class="cls-14" d="M344.449 71.756a3.516 3.516 0 01.371-2.1c.08-.019.258.026.338.008.517.809 1.391 2.463.956 3.149-.844 1.87-1.611-.06-1.665-1.057z"/><path class="cls-13" d="M290.854 83.972l-4.532-2.603-1.475-6.984 3.956-3.741 3.372-1.089 3.773.334 3.117 2.667 2.637 2.774-1.92 2.698-8.928 5.944z"/><path class="cls-14" d="M287.981 85.79a19.682 19.682 0 002.448.799c.534.133 1.113.088 1.727.203a5.348 5.348 0 001.334-.046 2.271 2.271 0 01.739-.08 12.092 12.092 0 005.213-2.257c4.099-3.101 5.322-8.166 3.272-12.08a3.93 3.93 0 00-1.096-1.52c-3.421-4.028-9.802-4.369-14.426-.983-4.589 3.547-5.66 9.67-2.239 13.698a9.997 9.997 0 003.028 2.266zm1.214-3.342c-.685-.435-6.953-5.044-.488-10.354 6.18-5.078 10.092.773 10.68 1.903a.826.826 0 00.134.222 54.378 54.378 0 00-5.105 3.494c-1.69 1.47-4.075 2.714-4.954 4.424l-.076.187c-.044.178-.11.106-.19.124z"/><path class="cls-13" d="M290.032 90.46a3.027 3.027 0 004.148.503 2.92 2.92 0 00.44-4.05 3.027 3.027 0 00-4.147-.502 2.828 2.828 0 00-.44 4.049z"/><ellipse class="cls-14" cx="291.311" cy="90.098" rx=".82" ry="1.067" transform="rotate(-58.196 291.31 90.098)"/><path class="cls-14" d="M295.41 112.293a5.921 5.921 0 01.693-2.172.493.493 0 00.338.008c.312 1.023.741 2.945.448 3.515-1.244 1.959-1.682-.381-1.478-1.351zM325.651 68.89a1.357 1.357 0 01-1.52.34 7.121 7.121 0 01-3.448-3.77 9.794 9.794 0 01.605-8.961c2.203-3.687 5.362-4.224 8.298-4.627 2.1-.385 4.137-.671 5.667-2.105a3.13 3.13 0 00.155-4.575 4.34 4.34 0 00-5.945-1.026 1.325 1.325 0 01-1.497-2.188 7.032 7.032 0 019.434 1.593 5.614 5.614 0 01-.384 8.072c-2.044 2.137-4.74 2.487-7 2.907-2.696.35-4.956.77-6.395 3.361a7.696 7.696 0 00-.448 6.657 5.122 5.122 0 002.165 2.543 1.33 1.33 0 01.652 1.788c-.116-.142-.258-.026-.339-.008z"/><path class="cls-14" d="M296.343 110.067c-.862 1.033-1.341 2.653-2.668 2.36a5.292 5.292 0 012.668-2.36zM290.66 113.605a5.921 5.921 0 01.692-2.172.493.493 0 00.338.009c.312 1.023.741 2.945.448 3.514-1.28 1.8-1.682-.38-1.478-1.35zM291.396 111.255c-.862 1.033-1.341 2.653-2.667 2.361a6.438 6.438 0 012.667-2.36z"/><path class="cls-19" d="M297.153 94.235a7.735 7.735 0 114.698-9.878 7.744 7.744 0 01-4.698 9.878zm-4.858-13.67a6.772 6.772 0 108.648 4.114 6.78 6.78 0 00-8.648-4.113z"/><path class="cls-19" d="M286.35 89.708l-.847-.455a1.698 1.698 0 012.264-.787l-.418.867a.74.74 0 00-.999.375z"/><ellipse class="cls-20" cx="57.839" cy="52.653" rx="12.293" ry="11.182"/><path class="cls-20" d="M42.524 74.526h30.63v7.381h-30.63z"/><path class="cls-4" d="M54.047 85.837h7.583v11.605h-7.583z"/><path class="cls-20" d="M49.911 80.552h15.856v7.583H49.911z"/><circle class="cls-4" cx="30.568" cy="114.047" r="6.76"/><path d="M258.784 199.07c1.72-1.508 4.39-2.296 6.4-3.365 3.747-1.995 6.187-5.31 8.068-9.044.123-.245 1.336-2.869 1.945-4.553a2.783 2.783 0 01-1.054-3.433 2.896 2.896 0 013.958-.861l9.421 4.934a2.895 2.895 0 011.546 3.744 2.758 2.758 0 01-3.307 1.124q-.235.307-.463.62a28.164 28.164 0 00-4.68 9.322 18.51 18.51 0 00-.458 6.196c.18 2.13 1.12 4.503 1.044 6.607-.142 3.9-1.61 8.375-3.102 11.958a172.628 172.628 0 01-14.017 26.347s-6.205 2.325-14.033-1.776h-.01c-7.828-4.1-9.96-9.68-9.96-9.68.34-1.121.744-2.223 1.123-3.33 1.918-5.6 4.06-11.052 6.435-16.474 2.77-6.324 5.815-13.661 11.144-18.335z" fill="#27aae1" opacity=".5"/><path d="M258.784 199.07c1.72-1.508 4.39-2.296 6.4-3.365 3.747-1.995 6.187-5.31 8.068-9.044.123-.245 1.336-2.869 1.945-4.553a2.783 2.783 0 01-1.054-3.433 2.896 2.896 0 013.958-.861l9.421 4.934a2.895 2.895 0 011.546 3.744 2.758 2.758 0 01-3.307 1.124q-.235.307-.463.62a28.164 28.164 0 00-4.68 9.322 18.51 18.51 0 00-.458 6.196c.18 2.13 1.12 4.503 1.044 6.607-.142 3.9-1.61 8.375-3.102 11.958a172.628 172.628 0 01-14.017 26.347s-6.205 2.325-14.033-1.776h-.01c-7.828-4.1-9.96-9.68-9.96-9.68.34-1.121.744-2.223 1.123-3.33 1.918-5.6 4.06-11.052 6.435-16.474 2.77-6.324 5.815-13.661 11.144-18.335z" fill="none" stroke="#fff" stroke-width=".388"/><path class="cls-13" d="M275.586 223.03s-9.307 20.094-12.766 23.859c0 0-12.946 1.118-20.646-10.443l9.729-24.767z"/><path d="M251.903 211.679c-.492 1.025 4.412 4.397 10.952 7.531 6.54 3.135 12.24 4.845 12.73 3.82.492-1.026-4.41-4.397-10.95-7.532-6.54-3.135-12.241-4.844-12.732-3.819z" fill="#e5e5e4"/><path class="cls-13" d="M287.88 169.972c-.847.971-1.575 5.36-1.575 5.36s4.247-1.323 5.094-2.295a2.333 2.333 0 10-3.519-3.065zM277.168 167.404c.653 2.017 6.224 6.76 6.224 6.76s1.732-7.109 1.079-9.125a3.838 3.838 0 00-7.303 2.365z"/><circle class="cls-4" cx="30.568" cy="103.639" r="2.498"/><circle class="cls-4" cx="30.568" cy="97.494" r="2.498"/><circle class="cls-4" cx="30.568" cy="91.349" r="2.498"/><circle class="cls-4" cx="30.568" cy="85.204" r="2.498"/><circle class="cls-4" cx="27.22" cy="80.17" r="1.737"/><circle class="cls-4" cx="27.22" cy="75.896" r="1.737"/><path class="cls-4" d="M103.084 81.907c-.626-18.258-19.99-32.912-43.803-32.912S16.104 63.649 15.478 81.907zM64.159 133.803h7.613v5.115h-7.613z"/><rect class="cls-4" x="69.559" y="129.236" width="4.77" height="13.64" rx="1.36"/></g></g></svg>