<svg xmlns="http://www.w3.org/2000/svg" viewBox="0 0 1920 1080"><defs><linearGradient id="linear-gradient" x1="1097.731" y1="161.694" x2="992.769" y2="304.221" gradientUnits="userSpaceOnUse"><stop offset=".289" stop-color="#41561d"/><stop offset="1" stop-color="#293512"/></linearGradient><style>.cls-2{fill:#fff}.cls-3{fill:#bbd5d1}.cls-4{fill:#8ac441}.cls-5{fill:#e63d31}.cls-6{fill:#41561d}.cls-7{fill:#a9e84f}.cls-8{fill:#225859}.cls-13{fill:#e73c31}.cls-16{fill:#7baa39}.cls-17{fill:#9fcc50}.cls-18{fill:#7ba941}.cls-19{fill:#102828}.cls-20{fill:#f3f7f4}.cls-22{fill:#e53e31}.cls-23{fill:#e0f9d2}</style></defs><g style="isolation:isolate"><g id="Layer_1" data-name="Layer 1"><path class="cls-2" d="M1395.535 544.344a434.028 434.028 0 01-60.07 220.92q-7.65 13.006-16.17 25.4v.02c-1.33 1.95-2.68 3.86-4.04 5.79a438.08 438.08 0 01-51.38 60.03q-12.51 12.18-25.96 23.36-6.705 5.565-13.63 10.85-7.23 5.55-14.7 10.77c-1.22.86-2.44 1.7-3.66 2.54q-5.445 3.75-11.02 7.31c-.16.11-.32.21-.48.31-2.29 1.47-4.6 2.92-6.92 4.33q-13.98 8.61-28.63 16.15c-1.98 1.02-3.96 2.02-5.96 3a431.854 431.854 0 01-98.04 34.63c-2.5.57-5.02 1.11-7.54 1.62a438.288 438.288 0 01-81.59 8.75c-2.01.04-4.02.05-6.03.05q-7.77 0-15.46-.28c-2.84-.09-5.66-.22-8.48-.37a435.769 435.769 0 01-57.99-7.04q-7.544-1.425-14.96-3.12c-2.49-.55-4.97-1.14-7.45-1.74-1.88-.47-3.77-.95-5.65-1.46q-20.25-5.265-39.69-12.39c-.99-.36-1.97-.72-2.95-1.09q-5.235-1.95-10.41-4.04a436.408 436.408 0 01-164.34-116.63q-10.724-12.18-20.53-25.15-2.804-3.72-5.53-7.49-8.714-12.06-16.62-24.73c-.23-.37-.46-.75-.69-1.12q-1.454-2.34-2.87-4.7-4.874-8.084-9.4-16.4-5.895-10.83-11.19-22.02a432.756 432.756 0 01-35.21-111.33 439.722 439.722 0 01-6.3-65.89c-.02-.87-.03-1.74-.04-2.61-.02-.87-.03-1.74-.03-2.62-.02-1.2-.02-2.4-.02-3.61 0-170.97 98.44-318.97 241.77-390.34q16.17-8.055 33.12-14.8c2.22-.89 4.44-1.75 6.68-2.59q16.29-6.195 33.22-11.05a434.995 434.995 0 01104.5-16.72h.02q8.22-.3 16.5-.31c1.52 0 3.03.01 4.54.03a433.734 433.734 0 01168.05 35.5c.89.35 1.78.75 2.67 1.15q10.14 4.425 19.98 9.38a432.266 432.266 0 0139.19 22.3q16.606 10.605 32.14 22.65a436.657 436.657 0 0151.86 47.26q6.66 7.125 12.96 14.51c5.43 6.32 10.64 12.8 15.7 19.43a433.889 433.889 0 0188.73 263.6z"/><path class="cls-3" transform="rotate(-88.473 1078.063 724.034)" d="M1046.718 719.553h62.69v8.963h-62.69z"/><path class="cls-3" d="M1062.87 653.152l-11.781 64.546 27.555-15.47 26.693 16.916-3.792-35.59-22.118-10.69 21.569 5.463-6.666-62.512-12.869-19.276 12.221 13.168-8.435-79.209-21.222 116.284 16.256-5.968-17.411 12.338z"/><path class="cls-3" transform="rotate(-88.473 1145.685 685.244)" d="M1130.013 683.003h31.345v4.482h-31.345z"/><path class="cls-3" d="M1138.082 649.796l-5.884 32.279 13.778-7.735 13.346 8.458-1.903-17.795-11.052-5.345 10.785 2.732-3.34-31.256-6.428-9.638 6.104 6.591-4.211-39.612-10.611 58.136 8.128-2.971-8.712 6.156z"/><path class="cls-4" d="M910.046 742.297c43.719 38.774 93.212 63.05 147.393 72.596 1.827.333 3.67.638 5.512.917 4.84.777 9.74 1.407 14.654 1.93 6.962.74 13.606 1.227 19.881 1.394q4.1.204 8.03.214c2.767.047 5.549.026 8.17-.025l2.243-.062c2.38-.085 4.65-.173 6.828-.29l2.272-.143a198.062 198.062 0 0032.16-4.315l4.113 15.91 4.14 15.91c-1.074.309-19.469 4.95-48.646 5.793-.77.02-1.555.066-2.338.045-2.284.061-4.62.08-7.011.097l-2.28-.06-8.354-.223q-3.926-.132-8.091-.405a299.49 299.49 0 01-13.004-1.035c-5.547-.607-11.484-1.306-17.656-2.28-1.856-.306-3.738-.613-5.66-.961-41.572-7.347-94.372-25.108-146.692-65.934q-8.758-6.823-17.439-14.508z"/><path class="cls-5" d="M1204.488 828.387c-7.038-11.531-5.718-68.159 14.133-57.542 15.002 8.65-.563 44.426-5.161 55.836l1.617.65c22.888 9.172 40.38 17.093 58.84 33.79 4.709 4.244 34.857 31.326 16.43 35.13-6.53 1.324-13.941-3.83-19.053-7.112a178.798 178.798 0 01-18.782-14.248c-9.443-7.99-18.465-16.535-27.187-25.207a69.534 69.534 0 0119.606 45.153c.223 5.813.832 19.968-5.925 22.664s-12.37-8.108-14.215-12.843c-2.54-6.536-3.213-13.684-3.839-20.615-1.207-12.996-.575-26.05.23-39.06-2.828 9.85-11.08 44.389-23.892 27.518-6.654-8.725-.16-23.92 3.704-32.58z"/><path class="cls-6" d="M1123.845 874.933l15.284-91.65 51.169 6.523-10.443 104.553-56.01-19.426z"/><path class="cls-4" transform="rotate(-74.263 1153.529 868.739)" d="M1150.66 850.252h5.738v36.974h-5.738z"/><path class="cls-4" transform="rotate(-76.193 1155.239 850.71)" d="M1152.37 832.782h5.738v35.856h-5.738z"/><path class="cls-4" transform="rotate(-77.501 1157.071 833.779)" d="M1154.443 818.194h5.255v31.169h-5.255z"/><path class="cls-4" transform="rotate(-78.853 1160.327 818.514)" d="M1157.695 803.948h5.265v29.131h-5.265z"/><path class="cls-4" transform="rotate(-82.023 1161.507 803.308)" d="M1158.875 788.965h5.265v28.686h-5.265z"/><path class="cls-7" d="M1087.506 833.234c-.59-3.42-3.87-5.65-6.93-6.65a21.237 21.237 0 00-15.79 1.21 14.944 14.944 0 01-1.81-11.98l.01-.05c-.98-.15-1.96-.3-2.93-.46h-.02c-.01-.01-.01-.01-.02-.01-.85-.14-1.71-.29-2.55-.46v.06a7.926 7.926 0 00-.27 1.17v.01a13.995 13.995 0 00-.34 2.09 20.437 20.437 0 003.23 12.61 20.058 20.058 0 00-7.68 16.52c1.92.33 3.8.65 5.67.96a14.065 14.065 0 01.99-7.5 16.09 16.09 0 014.42-5.7c4.61 4.67 11.08 7.44 17.55 6.12 3.79-.76 7.22-3.78 6.47-7.94zm-5.9 1.82a4.978 4.978 0 01-2.71.84 14.042 14.042 0 01-6.27-1.17 17.282 17.282 0 01-4.06-2.45c.29-.11.57-.22.85-.3a15.986 15.986 0 017.33-.6c1.7.27 4.05.88 5.08 2.35.37.47.4.84-.22 1.33z"/><path class="cls-2" d="M1105.49 819.266a309.876 309.876 0 01-8.677 32.719q-3.926-.132-8.091-.405a312.37 312.37 0 008.792-32.486q4.1.177 7.977.172z"/><path class="cls-8" d="M1115.956 819.275a323.463 323.463 0 01-8.455 33.008l-2.28-.06a337.956 337.956 0 008.494-32.98zM1125.057 818.788a316.972 316.972 0 01-8.206 33.299c-.77.02-1.555.066-2.338.045a310.993 310.993 0 008.272-33.202z"/><path class="cls-4" d="M892.721 756.474c-57.087 12.374-112.158 9.394-164.068-8.829a243.545 243.545 0 01-5.256-1.895 295.35 295.35 0 01-13.722-5.497 332.08 332.08 0 01-18.03-8.516c-2.44-1.24-4.608-2.445-7.084-3.78s-4.857-2.696-7.105-4.012c-.61-.408-1.315-.804-1.94-1.159q-3.044-1.836-5.806-3.598l-1.912-1.226a198.14 198.14 0 01-25.934-19.502l-11.376 11.85-11.402 11.85c.803.75 14.553 13.838 39.58 28.86l2.022 1.174c1.954 1.173 3.99 2.321 6.078 3.511.665.356 1.317.738 1.996 1.093a275.629 275.629 0 007.376 3.938q3.53 1.836 7.29 3.637c3.84 1.845 7.748 3.677 11.846 5.461q7.729 3.38 16.527 6.652a230.33 230.33 0 005.35 1.939c39.817 13.917 94.596 24.29 160.195 14.29a359.173 359.173 0 0022.31-4.12z"/><path class="cls-5" d="M579.848 694.441c12.96-3.82 49.952-46.71 28.104-52.157-16.908-3.626-29.383 33.34-33.628 44.879l-1.63-.598c-23.133-8.547-41.45-14.4-66.306-14.402-6.339-.004-46.865-.138-35.751 15.034 3.95 5.371 12.91 6.506 18.897 7.507a180.894 180.894 0 0023.487 2.033c12.38.407 24.765.09 37.128-.526a69.548 69.548 0 00-44.83 20.35c-4.062 4.172-14.006 14.239-10.803 20.785s14.607 2.27 19.157.007c6.267-3.15 11.547-8 16.68-12.707 9.666-8.815 17.899-18.943 26.007-29.132-4.495 9.19-21.532 40.35-.718 36.434 10.796-2.005 16.164-17.66 19.106-26.66z"/><path class="cls-6" d="M641.36 767.533l31.538-87.395-47.829-19.343-42.064 96.27 58.355 10.468z"/><path class="cls-4" transform="rotate(-76.423 618.206 746.195)" d="M615.574 729.233h5.265v33.923h-5.265z"/><path class="cls-4" transform="rotate(-74.503 624.92 731.12)" d="M622.288 714.671h5.265v32.898h-5.265z"/><path class="cls-4" transform="rotate(-73.023 631.82 715.555)" d="M629.188 699.943h5.265v31.224h-5.265z"/><path transform="rotate(-71.843 637.199 700.495)" fill="#27aae1" d="M634.566 685.93h5.265v29.131h-5.265z"/><path class="cls-4" transform="rotate(-68.673 643.573 686.714)" d="M640.941 672.378h5.265v28.672h-5.265z"/><path class="cls-7" d="M727.335 747.184c-.44-.15-.87-.3-1.32-.46-.88-.29-1.75-.61-2.62-.9a14.968 14.968 0 01-7.45 9.6 21.374 21.374 0 00-13.13-8.9c-3.18-.57-7.13-.2-9.32 2.46-2.69 3.23-1.17 7.57 1.76 10.08 5.02 4.28 11.99 5.09 18.28 3.28a15.574 15.574 0 011.07 7.1 14.251 14.251 0 01-2.77 7.05v.01c.39.15.78.29 1.17.43.44.17.88.33 1.32.49a.864.864 0 00.21.07c.42.15.84.31 1.27.46.45.16.91.32 1.37.49a.01.01 0 01.01-.01 20.143 20.143 0 001.39-18.18 19.372 19.372 0 0010.08-12.6c-.45-.15-.88-.31-1.32-.47zm-16.87 10.18l-.01-.02a16.56 16.56 0 01-4.71.25 14.218 14.218 0 01-6.05-2.04 5.097 5.097 0 01-1.97-2.07c-.32-.74-.1-1.06.49-1.35 1.55-.77 3.96-.14 5.58.44a16.008 16.008 0 016.09 4.13 5.819 5.819 0 01.57.64h.01z"/><path class="cls-2" d="M684.56 727.956a310.2 310.2 0 00-8.435 32.78q3.53 1.835 7.29 3.637a317.92 317.92 0 018.229-32.636q-3.65-1.866-7.083-3.78z"/><path class="cls-8" d="M675.516 722.786a325.83 325.83 0 00-8.764 32.919c.666.355 1.317.737 1.996 1.093a332.982 332.982 0 018.708-32.853 62.477 62.477 0 00-1.94-1.159zM667.852 717.964a317.054 317.054 0 00-9.145 33.057l2.021 1.174a312.892 312.892 0 018.982-33.007z"/><path class="cls-4" d="M959.996 851.984l-15.74 127.91c-2.84-.09-5.66-.22-8.48-.37a435.769 435.769 0 01-57.99-7.04q-7.545-1.425-14.96-3.12c-2.49-.55-4.97-1.14-7.45-1.74-1.88-.47-3.77-.95-5.65-1.46q-20.25-5.265-39.69-12.39c-.99-.36-1.97-.72-2.95-1.09l12.33-123.77z"/><path class="cls-6" d="M805.658 836.137l167.756 23.943 19.909-82.222-186.783-34.106-.882 92.385z"/><path class="cls-2" d="M820.77 713.45l-89.648-139.535-2.891-122.059 84.691-106.693 17.576-151.262 61.572 64.556 121.551 127.651 117.388-34.372 103.343-5.47 29.329 31.49-74.904 100.742-17.899 56.969-59.221 178.592-157.802 42.842L820.77 713.45z"/><path class="cls-4" d="M1249.806 159.528l-102.481 90.152-62.346 54.834-92.175-45.79-10.658-95.405-12.878-115.19c172.984-78.328 280.538 111.399 280.538 111.399z"/><path d="M1147.325 249.68l-62.346 54.834-92.175-45.79-10.658-95.405c29.831 1.159 122.603 10.886 165.179 86.361z" fill="url(#linear-gradient)"/><path fill="#f5edcb" d="M1034.771 159.209l-34.136 86.241-3.169 8.004-23.536-2.398-15.264-1.562-1.347-9.159-2.137-14.576-10.774-73.398 90.363 6.848z"/><path d="M1000.635 245.45l-3.17 8.004-23.535-2.398-9.668-7.193-6.943-3.528-2.137-14.576c10.959 1.291 31.35 5.558 45.453 19.69z" fill="#d3ccb2"/><path class="cls-4" d="M1136.374 349.89c-6.255 8.906-16.392 16.658-27.13 14.862l-29.009 35-128.885-78.684-39.59-75.463c12.467-11.672 28.428-14.862 44.205-12.704 16.03 2.174 31.88 9.85 43.724 19.738 17.087 14.264 29.804 26.171 52.637 27.955 19.617 1.53 39.682-1.846 58.491 5.651a64.961 64.961 0 0118.575 11.152c15.066 13.129 20.953 32.579 6.982 52.492z"/><path class="cls-7" d="M1129.392 297.397c-17.413-5.725-38.412-2.542-56.463-2.001-33.806 1.01-63.676-20.083-88.049-41.85-6.183-5.515-12.112-11.404-19.1-15.862a45.01 45.01 0 00-9.815-4.783c16.03 2.174 31.88 9.85 43.724 19.738 17.087 14.264 29.804 26.171 52.637 27.955 19.617 1.53 39.682-1.846 58.491 5.651a64.961 64.961 0 0118.575 11.152z"/><path class="cls-13" d="M1239.046 619.054c-1.58-53.64-52.49-112.35-52.49-112.35 10.59-11.13 19.99-21.63 28.35-31.46 63.2-74.35 66.52-111.47 66.52-111.47-45.39-28.41-99.63-29.51-139.32-24.72-2.84.34-5.59.72-8.27 1.11a292.554 292.554 0 00-46.1 10.41c-.7.21-1.05.34-1.05.34a44.6 44.6 0 00-1-1.51 143.5 143.5 0 00-87.81-61.3 89.704 89.704 0 00-11.77-1.94c21.7 9.28 37.34 33.18 37.82 33.92-33.37-17.48-61.42-28.43-84.49-35.13a100.417 100.417 0 00-14.99-33.23 109.516 109.516 0 00-7.8-10.14c-.56-.66-1.14-1.32-1.73-1.98-16.07-17.86-42.15-35.91-84.35-45.64h-.03c-.02 0-.03-.02-.04-.03h-.01q-7.396-1.695-15.46-3.04s-30.54 69.8-20.48 114.98c-33.67 8.12-38.72 19.41-38.72 19.41l32.94-1.25-.58 1.33-29.87 68.24c-43.35 2.66-70.83 25.72-71.69 26.45 8.08-3.03 31.63 3.55 31.63 3.55-64.85 21.24-85.7 73.4-86.33 75.01a35.567 35.567 0 0125.9-9.89c-52 65.55-5.2 103.85-4.23 104.63-1.36-4.48 3.38-25.21 3.38-25.21 1.56 61.65 41.66 116.5 41.66 116.5-1.67-7.68.76-44.45.76-44.45 1.26 41.2 38.82 81.18 40.02 82.41-4.2-6.63-3.76-43.16-3.76-43.16 11.26 34.52 28.65 55.67 41.11 67.26.81.78 1.63 1.56 2.48 2.29h.01a82.056 82.056 0 0012.56 9.25c2.09 1.22 4.13 2.41 6.18 3.53l-.42.2c.76.3 1.53.6 2.29.93a.037.037 0 00.03.01c.01 0 .01.01.02.01 2.15.86 4.29 1.83 6.4 2.81l.01.01a147.499 147.499 0 0120.35 11.52c-12.08-8.28-18.33-12.15-20.33-13.39a.01.01 0 00-.01-.01 6.83 6.83 0 01-.63-.4c.21.1.44.21.64.32a122.932 122.932 0 0022.6 8.59 203.672 203.672 0 017.78 2.24q3.134.96 6.04 1.91c7.5 2.38 14.2 4.54 21.65 5.37a54.964 54.964 0 007.24.35c.5-.01 1-.02 1.51-.04.32 0 .65-.02 1-.04q11.94-.675 23.85-1.16c2.31-.11 4.59-.22 6.88-.27h.01q16.83-.66 33.62-.99 9.404-.195 18.84-.27c1.21-.02 2.42-.03 3.63-.04h.04q7.98-.075 16.02-.07c5.62.01 10.91-.13 15.99-.37h.01c28.89-1.44 50.23-6.54 80.05-11.48 7.16-.12 14.35-.21 21.52-.29 13.76-7.37 27.64-14.12 42.19-20.23 2.36-.93 4.79-1.69 7.18-2.5a379.85 379.85 0 0023.16-38.48c1.75 9.11-2.91 22.51-8.63 34.6a107.747 107.747 0 0118.2-1.7 5.988 5.988 0 01.47-.53 39.015 39.015 0 016.51-5.43l-2.38.74c16.35-28.26 22.12-63.5 23.26-71.51.18-1.08.24-1.68.24-1.68a18.784 18.784 0 01.97 1.9v.01a11.728 11.728 0 01.73 1.82s.02 0 0 .02c0 .01.01.01.01.02 6.22 17.69-3.12 53.81-3.33 54.65 52.71-57.71-2.56-166.8-3.86-169.34 17.78 15.56 39.7 69.47 39.7 69.47zm-44.36-173.77a95.685 95.685 0 01-20.03 14.1s-17.7-46.29-47.16-76.07c0 0 1.93-.77 5.34-1.94 17.68-6.04 75-22.92 109.88-.49 0 0-19.96 39.37-48.03 64.4zm-227.41-69.74c40.51 14.95 47.33 97.82 29.32 146.78-18 48.97-65.91 66.89-106.44 52-40.5-14.87-58.28-56.94-40.28-105.92 17.99-48.96 76.9-107.81 117.4-92.86zm-144.29-117.11v-.05c.01-.03.02-.07.03-.11 0-.01.01-.01.01-.02v-.02a237.744 237.744 0 0111.8-34.71c54.27 15.75 78.23 64.44 69.15 65.7-11.9 1.7-35.76 11.41-54.23 19.53-14.17 6.18-25.16 11.48-25.16 11.48a37.746 37.746 0 01-2.68-5.45 53.6 53.6 0 01-3.52-16.59v-.03c-.91-12.9 1.43-27.15 4.6-39.73z"/><path class="cls-13" d="M1139.85 650.315c-2.507-.148-122.846 80.073-122.846 80.073l-237.828 18.617c103.75 93.769 277.942 39.412 277.942 39.412a150.732 150.732 0 01-65.546 35.39c128.104.807 165.35-79.32 165.35-79.32-4.743 20.374-29.854 61.675-29.854 61.675 60.834-36.42 79.786-143.555 79.786-143.555s-64.496-12.144-67.003-12.292z"/><path class="cls-2" d="M985.388 695.542c86.17-30.95 121.903-127.267 122.253-128.23q.052-.124.091-.252a2.848 2.848 0 10-5.441-1.686c-.336.936-35.15 94.752-118.786 124.825-53.76 19.323-115.889 8.538-184.637-32.037a2.835 2.835 0 00-2.831 4.894c64.347 37.973 123.233 50.346 175.258 36.878q7.18-1.861 14.093-4.392z"/><path class="cls-2" d="M1135.696 593.393c-10.733-76.124-58.763-42.294-58.763-42.294 56.922-50.77 60.253 29.964 60.253 29.964zM753.328 510.376c.47 21.89 13.043 49.232 13.043 49.232s82.15-7.263 51.467-28c-30.667-20.79-64.98-43.12-64.51-21.232z"/><ellipse class="cls-13" cx="930.868" cy="421.7" rx="29.023" ry="16.445" transform="rotate(-65.996 930.868 421.7)"/><ellipse class="cls-2" cx="862.752" cy="391.357" rx="29.023" ry="16.445" transform="rotate(-55.021 862.752 391.357)"/><path fill="#8f9193" d="M731.724 723.002l-3.322 11.775-293.881-74.339-54.81-182.062 203.361 25.371 36.699 186.731 111.953 32.524z"/><path class="cls-2" d="M730.98 725.272l-113.485-32.97-36.64-186.433-201.447-25.133.605-4.721 205.277 25.61 36.759 187.029 110.419 32.079-1.488 4.539z"/><path style="mix-blend-mode:multiply" fill="#201d1e" opacity=".5" d="M433.333 656.489l296.03 74.882-.961 3.406-293.633-74.276-1.436-4.012z"/><ellipse class="cls-2" cx="496.455" cy="589.29" rx="13.982" ry="24.259" transform="rotate(-9.862 496.455 589.29)"/><path class="cls-16" d="M164.156 839.373a111.046 111.046 0 01-62.581-32.3c-1.45-1.498-2.937-3.22-3.042-5.3-.161-3.164 3.136-5.64 6.301-5.748s6.12 1.471 8.843 3.088a155.332 155.332 0 0139.716 33.773c-12.382-20.22-25.132-41.595-26.134-65.284-.167-3.953.75-8.932 4.577-9.937 3.523-.925 6.671 2.316 8.712 5.333 13.777 20.373 18.344 45.418 22.3 69.691a125.388 125.388 0 01.939-54.508c1.089-4.502 3.125-9.648 7.624-10.748 3.317-.81 6.841 1.091 8.86 3.845s2.811 6.203 3.354 9.573a85.774 85.774 0 01-6.427 48.512z"/><path class="cls-4" d="M674.653 1080H.013V967.446a202.133 202.133 0 017.977-21.619c.456-1.074.944-2.116 1.433-3.19a172.425 172.425 0 015.73-11.526 185.745 185.745 0 0118.103-27.61c.195-.26.423-.52.65-.813a195.223 195.223 0 0125.592-26.275c.878-.749 1.823-1.563 2.767-2.312a208.506 208.506 0 0183.512-41.153 198.604 198.604 0 0191.033-.912 181.858 181.858 0 0114.293 3.907c.814.26 1.66.521 2.474.814q6.886 2.295 13.577 5.08c1.4.585 2.8 1.171 4.2 1.823l.684.293a186.963 186.963 0 0113.87 6.902c1.53.846 3.06 1.725 4.59 2.605a86.394 86.394 0 013.256 1.953 22.885 22.885 0 012.051 1.237c1.237.782 2.442 1.563 3.647 2.345q6.642 4.346 12.925 9.18c.554.392 1.108.815 1.628 1.238a149.355 149.355 0 017.586 6.154 224.516 224.516 0 0110.842 10.028c1.759 1.725 3.484 3.516 5.21 5.307v.032a208.435 208.435 0 0130.311 41.154q.88 1.465 1.66 3.028a191.81 191.81 0 0118.82 50.432 97.601 97.601 0 0111.33-21.325c.683-.944 1.335-1.856 2.051-2.768a109.377 109.377 0 0124.614-23.604 122.421 122.421 0 013.353-2.312c26.014-17.028 59.224-24.516 90.252-19.828 24.419 3.777 47.144 13.87 67.2 28.195 1.303.88 2.572 1.856 3.842 2.833a196.215 196.215 0 0124.712 22.14c.781.846 1.595 1.693 2.41 2.572a217.58 217.58 0 0127.12 36.92c2.507 4.33 4.949 8.726 7.163 13.22a92.251 92.251 0 011.563 3.092 309.245 309.245 0 0120.61 55.317z"/><path class="cls-17" d="M591.08 946.744c-1.284-.972-2.533-1.943-3.851-2.845-40.315 7.182-105.89 13.323-157.445-8.362a114.862 114.862 0 00-3.365 2.325c54.054 23.662 123.756 16.445 164.661 8.882zM399.773 964.23c19.325 14.745 62.034 41.634 115.985 41.634 31.156 0 66.093-8.951 102.453-34.417-.832-.868-1.63-1.735-2.429-2.568-97.422 67.863-184.229 15.266-213.962-7.424-.729.902-1.388 1.838-2.047 2.775zM369.623 935.121q-.78-1.561-1.666-3.018c-86.424 53.464-181.766 52.562-249.386 41.252A544.654 544.654 0 019.42 942.65c-.486 1.076-.972 2.116-1.423 3.192a549.95 549.95 0 00109.88 30.913c68.21 11.415 164.418 12.316 251.745-41.634zM652.49 1021.58c-31.884 12.11-120.738 38.65-287.204 38.65-2.852.17-249.248 12.02-365.286-54.173v3.929c86.349 48.057 240.598 54.616 318.17 54.616 28.381 0 46.457-.867 47.22-.902 167.264 0 256.603-26.819 288.661-39.032a85.442 85.442 0 00-1.561-3.087z"/><ellipse class="cls-17" cx="323.146" cy="919.859" rx="11.228" ry="5.238"/><ellipse class="cls-17" cx="332.475" cy="932.266" rx="5.171" ry="3.271"/><ellipse class="cls-17" cx="351.424" cy="924.071" rx="3.327" ry="1.026"/><ellipse class="cls-17" cx="419.045" cy="1027.833" rx="22.022" ry="10.518"/><circle class="cls-17" cx="404.643" cy="1000.994" r="4.87"/><path class="cls-18" d="M337.643 890.902v.032a39.49 39.49 0 01-18.005 15.563c-13.512 5.665-29.498 2.93-42.098-4.493-12.665-7.39-22.302-19.014-30.28-31.288 6.35 15.823 12.699 33.209 7.848 49.553-2.15 7.098-7.424 14.26-14.847 14.814-8.205.619-14.619-6.805-18.917-13.804a151.26 151.26 0 01-17.45-41.252c5.371 22.368 7.813 48.773-7.847 65.605A29.557 29.557 0 01183.219 954c-12.86 3.874-26.926-3.94-34.512-15.01-7.553-11.07-10.158-24.744-12.535-37.93l-22.367 51.28c-3.745 8.595-10.647 18.818-19.73 16.441-3.745-1.01-6.577-4.102-8.857-7.26-11.883-16.735-13.609-38.387-14.944-58.866a305.186 305.186 0 01-33.535 58.67c-4.395 5.958-12.404 12.307-18.167 7.684-2.735-2.181-3.419-6.023-3.777-9.507a127.356 127.356 0 01.358-28.391 185.745 185.745 0 0118.102-27.61c.196-.26.424-.52.652-.813a195.223 195.223 0 0125.59-26.275c.88-.749 1.824-1.563 2.768-2.312a208.506 208.506 0 0183.512-41.153 198.604 198.604 0 0191.033-.912 181.858 181.858 0 0114.293 3.907c.814.26 1.66.521 2.474.814q6.886 2.295 13.577 5.08c1.4.585 2.8 1.171 4.2 1.823l.684.293c1.465.65 2.93 1.334 4.362 2.018 3.191 1.53 6.382 3.158 9.507 4.884 1.53.846 3.061 1.725 4.591 2.605 1.075.618 2.182 1.237 3.256 1.953a22.885 22.885 0 012.051 1.237c1.237.782 2.442 1.563 3.647 2.345 4.282 2.753 8.421 5.715 12.466 8.842.152.115.308.223.46.339.553.39 1.106.814 1.627 1.237a149.355 149.355 0 017.586 6.154c3.712 3.223 7.359 6.544 10.842 10.028 1.758 1.725 3.484 3.516 5.21 5.307z"/><path class="cls-16" d="M1789.644 866.82a111.046 111.046 0 0062.582-32.301c1.449-1.498 2.936-3.22 3.041-5.3.161-3.164-3.136-5.639-6.301-5.748s-6.12 1.472-8.843 3.088a155.332 155.332 0 00-39.716 33.773c12.382-20.22 25.132-41.595 26.134-65.284.167-3.953-.75-8.932-4.576-9.937-3.523-.925-6.672 2.316-8.713 5.333-13.777 20.373-18.344 45.418-22.3 69.691a125.388 125.388 0 00-.939-54.508c-1.088-4.502-3.125-9.648-7.624-10.748-3.317-.81-6.841 1.091-8.86 3.845s-2.811 6.203-3.354 9.574a85.774 85.774 0 006.427 48.511z"/><path class="cls-2" d="M1405.09 951.75c4.72-9.187 9.548-18.17 14.317-26.81-23.042-11.28-68.804-41.456-56.891-71.153 12.407-30.928 60.488-27.498 85.31-18.903 30.308 10.495 56.557 41.272 61.322 72.522 2.992 19.62-4.824 37.725-12.98 55.566z"/><path class="cls-2" d="M1486.754 877.63s64.693-58.265 109.1-15.034c0 0-36.73 58.246-110.314 19.43zM1467.694 859.16s5.516-86.89 67.491-87.029c0 0 14.463 67.324-65.285 91.02z"/><path class="cls-19" d="M1429.716 872.323a5.876 5.876 0 01-4.008-1.328c-5.223-4.549 1.01-18.691 1.738-20.289a1 1 0 011.82.83c-1.805 3.964-5.726 14.92-2.244 17.951 1.426 1.242 5.683 2.142 18.17-5.778a1 1 0 011.071 1.689c-7.298 4.628-12.77 6.925-16.547 6.925zM1454.944 891.063a5.877 5.877 0 01-4.007-1.328c-5.223-4.549 1.01-18.691 1.738-20.289a1 1 0 011.82.83c-1.805 3.964-5.727 14.92-2.244 17.951 1.425 1.241 5.683 2.142 18.17-5.778a1 1 0 011.07 1.689c-7.297 4.628-12.77 6.925-16.547 6.925z"/><path class="cls-13" d="M1387.114 847.056c-2.02 3.138-13.333 9.63-19.558 5.624s-5.003-16.992-2.984-20.13 8.703-2.435 14.928 1.57 9.634 9.798 7.614 12.936z"/><path class="cls-4" d="M1919.996 929.004v151h-632.58a282.375 282.375 0 0112.34-29.12l.01-.01c.24-.5.48-1 .73-1.5.02-.03.03-.06.05-.09.25-.5.51-1 .77-1.5v-.01c2.22-4.49 4.66-8.88 7.17-13.21a217.499 217.499 0 0127.11-36.91l.01-.01c.81-.88 1.63-1.72 2.41-2.57a196.596 196.596 0 0124.7-22.13c.32-.24.64-.49.96-.73l.96-.72c.64-.48 1.28-.95 1.94-1.4a166.156 166.156 0 0139.99-21.21 145.37 145.37 0 0127.2-6.98 131.555 131.555 0 0168.02 8.27 127.332 127.332 0 0122.23 11.56c1.15.76 2.26 1.53 3.37 2.32a109.424 109.424 0 0124.6 23.6c.2.25.4.51.6.77.15.2.3.4.44.6.17.24.34.47.5.7.18.23.34.47.51.7a97.56 97.56 0 0111.33 21.32 191.74 191.74 0 0118.82-50.43c.12-.23.23-.46.35-.69.14-.29.3-.57.45-.85.28-.5.56-1 .86-1.49a208.476 208.476 0 0130.31-41.15v-.04c1.73-1.79 3.45-3.58 5.21-5.3q1.98-1.965 3.99-3.85c.68-.64 1.35-1.26 2.03-1.89.68-.63 1.36-1.24 2.05-1.86.92-.81 1.84-1.63 2.77-2.43 2.48-2.15 5.02-4.2 7.59-6.15.52-.43 1.07-.85 1.63-1.24.15-.12.3-.23.46-.34.84-.65 1.69-1.3 2.54-1.92a.511.511 0 01.17-.13q4.77-3.525 9.75-6.79c1.21-.78 2.41-1.57 3.65-2.35a22.316 22.316 0 012.05-1.23c.8-.52 1.63-1.01 2.45-1.49.27-.16.54-.32.81-.47 1.53-.88 3.06-1.76 4.59-2.6 3.12-1.73 6.31-3.36 9.5-4.89a194.755 194.755 0 015.05-2.31c1.4-.65 2.8-1.24 4.2-1.82q6.69-2.79 13.58-5.08c.81-.29 1.66-.55 2.47-.81q7.08-2.25 14.29-3.91a191.617 191.617 0 0143.06-4.84c1.28 0 2.55.01 3.83.04 1.15.02 2.3.05 3.45.1.33 0 .67.01 1.01.04.56.02 1.11.04 1.66.08.71.02 1.42.06 2.14.11 1.09.06 2.18.13 3.27.22 1.07.08 2.13.17 3.2.27l1.89.18c1.02.11 2.03.22 3.05.34.65.08 1.29.15 1.93.24 2.06.25 4.12.55 6.18.88a.284.284 0 01.09.01q1.544.24 3.09.51a238.041 238.041 0 017.13 1.36c.17.04.35.08.53.11l.81.18c.65.14 1.31.29 1.96.44.92.2 1.84.42 2.76.64 1.03.24 2.05.49 3.07.76.62.15 1.24.32 1.86.48a2.559 2.559 0 01.26.07 3.532 3.532 0 01.43.12c.95.25 1.9.51 2.84.77.47.13.95.26 1.42.41.77.22 1.53.44 2.28.67q7.154 2.145 14.14 4.83 1.064.39 2.1.81c.59.22 1.17.46 1.75.7.84.34 1.68.68 2.51 1.03.2.08.4.16.59.25.84.36 1.68.72 2.52 1.09q.674.285 1.35.6c.73.32 1.45.65 2.17.99q.494.21.99.45c.84.39 1.68.79 2.51 1.2.41.19.81.38 1.2.59.62.29 1.23.6 1.84.91.68.34 1.35.68 2.02 1.03.48.25.96.5 1.43.75.47.24.93.49 1.4.75.77.41 1.53.82 2.29 1.25 2.15 1.19 4.28 2.41 6.38 3.68a209.132 209.132 0 0124.16 16.96c.94.75 1.89 1.57 2.77 2.32a195.546 195.546 0 0125.59 26.27c.03.04.07.08.1.12z"/><path class="cls-17" d="M1362.72 972.94c1.284-.97 2.533-1.942 3.852-2.844 40.315 7.182 105.888 13.322 157.444-8.362 1.145.764 2.256 1.527 3.366 2.325-54.054 23.662-123.757 16.445-164.662 8.882zM1554.027 990.427c-19.324 14.745-62.034 41.634-115.985 41.634-31.155 0-66.093-8.952-102.453-34.418.833-.867 1.63-1.734 2.429-2.567 97.422 67.863 184.229 15.266 213.963-7.425.728.902 1.387 1.839 2.046 2.776zM1919.996 977.864v3.68c-1.9.65-3.84 1.29-5.82 1.94a538.704 538.704 0 01-78.25 19.47c-44.93 7.52-102.01 10.47-160.69-3.81-.1-.02-.19-.04-.29-.07-2.19-.53-4.39-1.09-6.58-1.68-.1-.02-.19-.05-.29-.07-.71-.19-1.42-.38-2.12-.57-.07-.02-.13-.04-.19-.06-1.4-.38-2.81-.78-4.21-1.18-.05-.02-.1-.03-.16-.05-1.06-.31-2.12-.62-3.18-.94a313.895 313.895 0 01-35.03-12.82 306.912 306.912 0 01-39-20.39h-.01c.12-.23.23-.46.36-.69.14-.29.3-.57.45-.85.28-.5.57-.99.86-1.47a306.995 306.995 0 0072.41 32.64c.94.29 1.88.57 2.83.85 1.55.45 3.11.9 4.66 1.33.02 0 .03.01.05.01q2.504.705 5.01 1.35c.09.02.18.05.26.07q1.544.405 3.09.78 3.704.93 7.41 1.76c56.16 12.65 110.54 9.67 153.66 2.46q11.324-1.905 22.08-4.24c1.28-.27 2.56-.54 3.82-.83 18.73-4.16 35.91-9.05 50.98-13.98q4.05-1.32 7.89-2.64zM1301.316 1047.784c22.02 8.35 71.18 23.59 154.28 32.22h-29.34c-66.38-8.91-107-21.71-126.49-29.13-.01 0-.01-.01-.02-.01.236-.487.502-.993.752-1.49l.045-.089c.254-.505.493-1.002.762-1.51h.01zM1919.996 1048.124v3.64c-35.06 13.46-76.27 22.38-117.49 28.24h-26.98c50.04-5.62 101.98-15.34 144.47-31.88z"/><ellipse class="cls-17" cx="1630.654" cy="946.055" rx="11.228" ry="5.238"/><ellipse class="cls-17" cx="1621.325" cy="958.463" rx="5.171" ry="3.271"/><ellipse class="cls-17" cx="1602.376" cy="950.267" rx="3.327" ry="1.026"/><ellipse class="cls-17" cx="1534.755" cy="1054.03" rx="22.022" ry="10.518"/><circle class="cls-17" cx="1549.157" cy="1027.191" r="4.87"/><path class="cls-18" d="M1919.996 929.004v61.96a30.733 30.733 0 01-2.93-3.44c-.97-1.34-1.94-2.69-2.89-4.04-.7-.99-1.39-1.98-2.07-2.98a303.089 303.089 0 01-28.58-51.65c-1.33 20.48-3.06 42.13-14.94 58.86-1.99 2.75-4.4 5.45-7.46 6.77a11.025 11.025 0 01-1.4.49 9.939 9.939 0 01-2.42.34c-7.89.2-13.91-8.96-17.31-16.78q-11.19-25.635-22.37-51.28c-2.37 13.19-4.98 26.86-12.53 37.93-7.59 11.07-21.65 18.89-34.51 15.01a29.513 29.513 0 01-12.83-8.37c-15.66-16.83-13.22-43.23-7.85-65.6a151.236 151.236 0 01-17.45 41.25c-4.3 7-10.71 14.42-18.92 13.81-7.42-.56-12.69-7.72-14.84-14.82-4.85-16.34 1.49-33.73 7.84-49.55-7.97 12.27-17.61 23.9-30.28 31.29-12.6 7.42-28.58 10.15-42.09 4.49a39.46 39.46 0 01-18.01-15.56v-.04c1.73-1.79 3.45-3.58 5.21-5.3 1.31-1.31 2.64-2.6 3.99-3.85.68-.64 1.35-1.26 2.03-1.89.68-.63 1.36-1.24 2.05-1.86.92-.81 1.84-1.63 2.77-2.43 2.48-2.15 5.02-4.2 7.59-6.15.52-.43 1.07-.85 1.63-1.24.15-.12.3-.23.46-.34.84-.65 1.69-1.3 2.54-1.92a.511.511 0 01.17-.13c3.18-2.38 6.42-4.65 9.75-6.79 1.21-.78 2.41-1.57 3.65-2.35a22.316 22.316 0 012.05-1.23c.8-.54 1.63-1.02 2.45-1.49.27-.16.54-.32.81-.47 1.53-.88 3.06-1.76 4.59-2.6 3.12-1.73 6.31-3.36 9.5-4.89a194.755 194.755 0 015.05-2.31c1.4-.65 2.8-1.24 4.2-1.82q6.69-2.79 13.58-5.08c.81-.29 1.66-.55 2.47-.81q7.08-2.25 14.29-3.91a191.617 191.617 0 0143.06-4.84c1.28 0 2.55.01 3.83.04 1.15.02 2.3.05 3.45.1.33 0 .67.01 1.01.04.56.02 1.11.04 1.66.08.71.02 1.42.06 2.14.11 1.09.06 2.18.13 3.27.22 1.07.08 2.13.17 3.2.27l1.89.18c1.02.11 2.03.22 3.05.34.65.08 1.29.15 1.93.24 2.06.25 4.12.55 6.18.88a.284.284 0 01.09.01q1.544.24 3.09.51a238.041 238.041 0 017.13 1.36c.17.04.35.08.53.11l.81.18c.65.14 1.31.29 1.96.44.92.2 1.84.42 2.76.64 1.03.24 2.05.49 3.07.76.62.15 1.24.32 1.86.48a2.559 2.559 0 01.26.07 3.532 3.532 0 01.43.12c.95.25 1.9.51 2.84.77.47.13.95.26 1.42.41.77.22 1.53.44 2.28.67q7.154 2.145 14.14 4.83 1.065.39 2.1.81c.59.22 1.17.46 1.75.7.84.34 1.68.68 2.51 1.03.2.08.4.16.59.25.84.36 1.68.72 2.52 1.09q.675.285 1.35.6c.73.32 1.45.65 2.17.99q.494.21.99.45c.84.39 1.68.79 2.51 1.2.41.19.81.38 1.2.59.62.29 1.23.6 1.84.91.68.34 1.35.68 2.02 1.03.48.25.96.5 1.43.75.47.24.93.49 1.4.75.77.41 1.53.82 2.29 1.25 2.15 1.19 4.28 2.41 6.38 3.68a209.132 209.132 0 0124.16 16.96c.94.75 1.89 1.57 2.77 2.32a195.546 195.546 0 0125.59 26.27c.03.04.07.08.1.12z"/><ellipse class="cls-20" cx="1642.839" cy="990.844" rx="4.287" ry="22.995" transform="rotate(-68.933 1642.839 990.844)"/><ellipse class="cls-20" cx="1689.048" cy="1008.645" rx="4.287" ry="22.995" transform="rotate(-68.933 1689.048 1008.645)"/><ellipse class="cls-20" cx="1674.844" cy="976.64" rx="22.995" ry="4.287" transform="rotate(-68.933 1674.844 976.64)"/><ellipse class="cls-20" cx="1657.043" cy="1022.849" rx="22.995" ry="4.287" transform="rotate(-68.933 1657.043 1022.85)"/><ellipse class="cls-20" cx="1688.574" cy="989.7" rx="22.995" ry="4.287" transform="rotate(-23.933 1688.574 989.7)"/><ellipse class="cls-20" cx="1643.313" cy="1009.789" rx="22.995" ry="4.287" transform="rotate(-23.933 1643.313 1009.788)"/><ellipse class="cls-20" cx="1675.988" cy="1022.375" rx="4.287" ry="22.995" transform="rotate(-23.933 1675.988 1022.375)"/><ellipse class="cls-20" cx="1655.899" cy="977.114" rx="4.287" ry="22.995" transform="rotate(-23.933 1655.9 977.114)"/><circle cx="1665.943" cy="999.744" r="9.323" fill="#cae248"/><path class="cls-6" d="M1176.075 276.824a4.574 4.574 0 01-.97-.1 4.43 4.43 0 01-.92-.28 4.892 4.892 0 01-.85-.45 4.558 4.558 0 01-.76-.62 4.975 4.975 0 01-1.45-3.5 5.249 5.249 0 01.1-.96 4.984 4.984 0 01.28-.93 5.34 5.34 0 01.46-.85 4.449 4.449 0 01.61-.75 4.572 4.572 0 01.76-.62 4.948 4.948 0 01.85-.46 6.097 6.097 0 01.92-.28 4.878 4.878 0 011.94 0 6.098 6.098 0 01.92.28 5.48 5.48 0 01.86.46 4.96 4.96 0 010 8.23 5.41 5.41 0 01-.86.45 4.43 4.43 0 01-.92.28 4.578 4.578 0 01-.97.1zM1886.985 558.984a4.945 4.945 0 012.14-6.66 4.958 4.958 0 016.66 2.15 4.946 4.946 0 01-2.14 6.66 4.975 4.975 0 01-2.26.54 4.924 4.924 0 01-4.4-2.69zm-14.07-25.92a4.955 4.955 0 011.83-6.76 4.944 4.944 0 016.75 1.83 4.955 4.955 0 01-1.83 6.76 4.942 4.942 0 01-2.45.65 4.953 4.953 0 01-4.3-2.48zm-15.28-25.21a4.929 4.929 0 011.5-6.83 4.935 4.935 0 016.83 1.49 4.96 4.96 0 01-1.5 6.84 4.896 4.896 0 01-2.66.78 4.948 4.948 0 01-4.17-2.28zm-16.53-24.4a4.957 4.957 0 011.15-6.9 4.939 4.939 0 016.9 1.15 4.946 4.946 0 01-1.14 6.9 4.952 4.952 0 01-2.88.92 4.954 4.954 0 01-4.03-2.07zm-17.77-23.48a4.954 4.954 0 01.77-6.96 4.964 4.964 0 016.96.77 4.956 4.956 0 01-.78 6.96 4.903 4.903 0 01-3.08 1.08 4.948 4.948 0 01-3.87-1.85zm-19.02-22.48a4.95 4.95 0 01.39-6.99 4.94 4.94 0 016.98.39 4.938 4.938 0 01-.38 6.98 4.928 4.928 0 01-3.3 1.26 4.939 4.939 0 01-3.69-1.64zm-20.24-21.38a4.934 4.934 0 01-.01-6.99 4.934 4.934 0 016.99-.01 4.934 4.934 0 01.01 6.99 4.914 4.914 0 01-3.5 1.46 4.94 4.94 0 01-3.49-1.45zm-21.44-20.18a4.949 4.949 0 01-.41-6.98 4.952 4.952 0 016.99-.42 4.961 4.961 0 01.41 6.99 4.945 4.945 0 01-3.7 1.66 4.944 4.944 0 01-3.29-1.25zm-22.56-18.9a4.948 4.948 0 01-.82-6.95 4.948 4.948 0 016.95-.82 4.947 4.947 0 01.82 6.95 4.942 4.942 0 01-3.89 1.88 4.968 4.968 0 01-3.06-1.06zm-23.63-17.56a4.953 4.953 0 01-1.22-6.89 4.944 4.944 0 016.89-1.22 4.942 4.942 0 011.22 6.89 4.942 4.942 0 01-4.06 2.11 4.98 4.98 0 01-2.83-.89zm-24.6-16.17a4.952 4.952 0 01-1.62-6.81 4.95 4.95 0 016.81-1.61 4.938 4.938 0 011.61 6.81 4.942 4.942 0 01-4.21 2.35 4.88 4.88 0 01-2.59-.74zm-25.5-14.74a4.946 4.946 0 01-2-6.71 4.951 4.951 0 016.71-1.99 4.942 4.942 0 011.99 6.7 4.926 4.926 0 01-4.35 2.6 4.976 4.976 0 01-2.35-.6zm-26.29-13.29a4.955 4.955 0 01-2.37-6.59 4.948 4.948 0 016.59-2.36 4.936 4.936 0 012.36 6.58 4.942 4.942 0 01-4.48 2.84 4.932 4.932 0 01-2.1-.47zm-26.99-11.85a4.943 4.943 0 01-2.71-6.45 4.941 4.941 0 016.44-2.72 4.952 4.952 0 012.72 6.45 4.94 4.94 0 01-4.58 3.08 4.894 4.894 0 01-1.87-.36zm-27.58-10.42a4.943 4.943 0 01-3.05-6.3 4.95 4.95 0 016.3-3.05 4.95 4.95 0 013.05 6.3 4.94 4.94 0 01-4.67 3.32 4.843 4.843 0 01-1.63-.27zm-28.09-9.02a4.946 4.946 0 01-3.35-6.14 4.947 4.947 0 016.14-3.35 4.947 4.947 0 013.35 6.14 4.95 4.95 0 01-4.74 3.56 4.794 4.794 0 01-1.4-.21zm-28.51-7.64a4.96 4.96 0 01-3.64-5.98 4.951 4.951 0 015.98-3.63 4.942 4.942 0 013.64 5.97 4.947 4.947 0 01-4.8 3.78 4.81 4.81 0 01-1.18-.14zm-328.6-9.84a4.951 4.951 0 013.94-5.78v.01a4.946 4.946 0 015.78 3.94 4.946 4.946 0 01-3.95 5.78h.01a4.9 4.9 0 01-.93.09 4.94 4.94 0 01-4.85-4.04zm299.76 3.52a4.933 4.933 0 01-3.9-5.8 4.94 4.94 0 015.8-3.91 4.953 4.953 0 013.91 5.81 4.959 4.959 0 01-4.86 3.99 5.163 5.163 0 01-.95-.09zm-270.45-8.62a4.944 4.944 0 014.17-5.61 4.953 4.953 0 015.62 4.17 4.954 4.954 0 01-4.18 5.62 5.797 5.797 0 01-.72.05 4.945 4.945 0 01-4.89-4.23zm241.34 3.58a4.947 4.947 0 01-4.15-5.63 4.946 4.946 0 015.63-4.15 4.96 4.96 0 014.16 5.63 4.952 4.952 0 01-4.89 4.21 4.735 4.735 0 01-.75-.06zm-211.86-7.55a4.945 4.945 0 014.37-5.46 4.938 4.938 0 015.46 4.37 4.938 4.938 0 01-4.37 5.46 5.053 5.053 0 01-.55.03 4.943 4.943 0 01-4.91-4.4zm182.56 3.74a4.936 4.936 0 01-4.38-5.45 4.942 4.942 0 015.45-4.38 4.937 4.937 0 014.38 5.45 4.937 4.937 0 01-4.91 4.41 4.882 4.882 0 01-.54-.03zm-152.96-6.67a4.948 4.948 0 014.57-5.3 4.934 4.934 0 015.3 4.56 4.941 4.941 0 01-4.56 5.3c-.13.01-.25.02-.38.02a4.957 4.957 0 01-4.93-4.58zm123.51 4.05a4.948 4.948 0 01-4.59-5.28 4.948 4.948 0 015.28-4.59 4.948 4.948 0 014.59 5.28 4.947 4.947 0 01-4.93 4.6c-.11 0-.23 0-.35-.01zm-93.82-5.94a4.965 4.965 0 014.75-5.15 4.95 4.95 0 015.14 4.75 4.942 4.942 0 01-4.74 5.14c-.07 0-.14.01-.21.01a4.953 4.953 0 01-4.94-4.75zm64.29 4.45a4.942 4.942 0 01-4.79-5.1 4.955 4.955 0 015.1-4.79 4.955 4.955 0 014.79 5.1 4.955 4.955 0 01-4.94 4.8.808.808 0 01-.16-.01zm-34.55-5.31a4.946 4.946 0 014.92-4.97 4.946 4.946 0 014.97 4.92 4.949 4.949 0 01-4.92 4.98h-.03a4.942 4.942 0 01-4.94-4.93zM1904.425 588.584a4.95 4.95 0 01-4.95-4.95 5.314 5.314 0 01.1-.97 5.12 5.12 0 01.28-.92 5.44 5.44 0 01.46-.86 5.503 5.503 0 01.61-.75 4.968 4.968 0 017.62.75 5.388 5.388 0 01.45.86 5.12 5.12 0 01.28.92 4.574 4.574 0 01.1.97 4.95 4.95 0 01-4.95 4.95z"/><path class="cls-22" d="M388.248 207.028c-.015-.19-.216-.415-.65-.684-6.809-4.223-37.345-16.58-37.345-16.58 2.436-.252 15.61 3.863 15.61 3.863-15.996-12.54-46.455-17.806-46.455-17.806 3.528-1.616 21.294-.036 21.294-.036-24.257-16.097-64.454-5.46-64.454-5.46 4.402-4.392 21.457-11.124 21.457-11.124-26.448-1.49-48.445 13.55-48.445 13.55 3.094-4.439 13.876-10.889 13.876-10.889-19.337 5.193-37.809 18.619-39.867 20.144a144.867 144.867 0 00-67.57 37.691s-45.603 74.97-78.383 70.095c0 0 59.666 23.745 104.383-16.672-7.562 7.591-24.888 28.455-17.396 54.405 0 0 87.246-129.694 229.33-117.752 0 0-1.948-1.06-5.385-2.745z"/><path class="cls-22" d="M139.018 286.815s-6.379 21.025 6.138 41.152c0 0 7.868-36.73 37.967-50.912l-3.386-9.824zM139.258 244.278l4.661-7.061a330.452 330.452 0 01-5.236 7.07c.368-.004.575-.01.575-.01zM134.727 244.212a340.912 340.912 0 0013.103-18.264c-5.141-8.044-21.457-29.556-37.265-7.25-15.393 21.72 12.723 25.04 24.162 25.514zM72.368 294.734c-2.37-3.095-1.253-7.519 2.495-9.88s8.708-1.768 11.078 1.327c2.37 3.095 1.253 7.519-2.495 9.88-3.749 2.363-8.708 1.768-11.078-1.327zM333.042 213.148c-16.808-.644-42.782 5.077-82.728 26.048L217.06 260.15s8.564-2.386 22.005-5.842a272.42 272.42 0 0142.328-24.346 232.518 232.518 0 0151.649-16.814zM282.775 232.631a263.079 263.079 0 00-34.947 19.448l.714-.18c4.037.42 22.361 2.035 36.786-1.667 0 0-10.669-1.175-13.858-2.113 0 0 29.811-2.163 43.886-6.59 0 0-9.882-.524-13.836-1.49-.365-.09-.598-.154-.837-.22.32-.066.64-.135.96-.202.428-.04 39.328-3.624 55.06-9.574l-.073-.067c.263-.034.529-.07.791-.103-3.328 2.024-6.3 4.448-7.867 7.452 5.579 1.008 7.468-3.959 10.07-7.718l.628-.076a28.266 28.266 0 00-2.66 6.845c-.62 3.651.596 12.04 5.91 5.524 1.83-2.106.338-8.616-1.007-12.64l.261-.031s-3.327-10.773-19.424-14.713a225.453 225.453 0 00-60.557 18.115zM391.792 208.882c-3.264 3.747-4.84 10.306-11.172 9.162 2.052-3.934 6.507-6.885 11.027-9.226.05.02.096.044.145.064zM388.659 217.095a25.022 25.022 0 013.32-8.13c.463.182.926.352 1.411.49 1.382 3.958 3.086 10.968 1.178 13.165-5.314 6.515-6.53-1.873-5.91-5.525z"/><path class="cls-2" d="M166.785 217.864l-15.701-14.324.317-28.35 19.219-11.511 13.973-1.586 14.518 4.871 10.067 12.962 8.025 13.4-10.045 9.176-40.373 15.362z"/><path class="cls-22" d="M223.426 181.884v-.02a32.758 32.758 0 00-2.66-6.98c-9.74-18.84-34.96-26.17-56.33-16.41-21.35 9.78-30.75 32.97-20.99 51.84a35.43 35.43 0 0010.46 12.22l.01.01a37.334 37.334 0 008.76 5.02c.01 0 .02.01.03.01h.01a46.677 46.677 0 0011.62 3.08c.92.12 1.88.2 2.86.26h.03a47.193 47.193 0 0022.55-4.24c18.77-8.59 28.31-27.57 23.65-44.79zm-36.89 14.61c-.1.04-.18.1-.28.14-.01.01-.03.01-.04.02-.02.01-.03.02-.05.03-7.96 4.03-16.21 9.11-21.49 14.88l-.02.02-.02.03a9.852 9.852 0 00-1.2 1.32s-.05-.05-.16-.18l-.01-.01c-2.2-2.44-24.66-28.24 5.5-43.42 28.81-14.53 39.13 11.89 40.77 16.77l.01.01c.16.45.23.74.23.74a182.325 182.325 0 00-23.01 9.53c-.07.03-.16.09-.23.12z"/><path class="cls-2" d="M157.77 242.91a12.444 12.444 0 0015.993 5.746 11.072 11.072 0 005.049-15.384 12.444 12.444 0 00-15.992-5.746 11.072 11.072 0 00-5.05 15.383z"/><ellipse class="cls-22" cx="173.673" cy="237.217" rx="3.075" ry="4.086" transform="rotate(-45.611 173.673 237.217)"/><path class="cls-22" d="M159.616 333.598a31.324 31.324 0 014.65-8.251 12.114 12.114 0 001.196.695c.481 4.388.654 12.066-1.529 14.17-6.156 6.286-5.609-2.801-4.317-6.614zM317.124 189.277a5.307 5.307 0 01-6.233-.206c-5.174-4.026-8.806-10.474-10.211-18.162a41.733 41.733 0 0110.155-35.148c11.62-12.61 25.061-11.664 36.933-10.837 8.645.598 16.815 1.168 23.885-3.391 9.332-5.83 6.525-14.432 4.835-17.748-3.762-7.38-12.93-13.21-22.5-9.485a5.302 5.302 0 01-3.844-9.883c15.367-5.99 29.917 3.026 35.796 14.546 6.06 11.879 2.844 24.112-8.542 31.49-10.033 6.467-20.841 5.714-30.369 5.05-10.86-.755-20.234-1.404-28.386 7.442a30.943 30.943 0 00-7.534 26.052c.94 5.118 3.177 9.278 6.298 11.705a5.304 5.304 0 01-.283 8.575z"/><path class="cls-22" d="M164.999 325.476c-4.084 3.18-7.517 9.652-12.852 7.083 3.053-3.64 7.962-5.735 12.741-7.18.038.03.073.066.11.097zM139.548 334.307a31.324 31.324 0 014.65-8.251 12.113 12.113 0 001.196.695c.482 4.388.655 12.066-1.528 14.17-6.156 6.285-5.609-2.801-4.318-6.614z"/><path class="cls-22" d="M144.931 326.185c-4.084 3.18-7.517 9.652-12.851 7.083 3.053-3.64 7.962-5.735 12.741-7.181.038.032.073.067.11.098z"/><path class="cls-6" d="M920.445 210.394a4.994 4.994 0 01-.59-7.04 4.996 4.996 0 017.05-.58 4.984 4.984 0 01.58 7.04 4.983 4.983 0 01-3.81 1.77 4.95 4.95 0 01-3.23-1.19zm-497.91-11.74a5 5 0 01.73-7.03h.01a5 5 0 017.03.73 5.004 5.004 0 01-.74 7.04 4.99 4.99 0 01-3.15 1.11 4.983 4.983 0 01-3.88-1.85zm474.69-6.76a4.994 4.994 0 01-1.01-6.99 4.988 4.988 0 017-1.01 4.994 4.994 0 011.01 6.99 4.98 4.98 0 01-4.01 2.01 4.936 4.936 0 01-2.99-1zm-450.37-10.93a4.997 4.997 0 011.53-6.9 4.997 4.997 0 016.9 1.53 5.002 5.002 0 01-1.53 6.91 4.962 4.962 0 01-2.68.78 4.988 4.988 0 01-4.22-2.32zm426.05-6.03a4.996 4.996 0 01-1.47-6.92 4.983 4.983 0 016.91-1.47 4.995 4.995 0 011.48 6.91 5 5 0 01-4.2 2.28 5.006 5.006 0 01-2.72-.8zm-400.36-9.51a4.994 4.994 0 012-6.78 4.991 4.991 0 016.78 1.99 5.014 5.014 0 01-1.99 6.79 5.028 5.028 0 01-2.39.61 5.023 5.023 0 01-4.4-2.61zm374.95-5.73a5.001 5.001 0 01-1.97-6.79 5.012 5.012 0 016.8-1.97 5 5 0 011.96 6.79 4.984 4.984 0 01-4.38 2.59 4.975 4.975 0 01-2.41-.62zm-348.29-8.08a5.005 5.005 0 012.42-6.65 5.01 5.01 0 016.65 2.43 4.998 4.998 0 01-2.43 6.64 4.93 4.93 0 01-2.1.47 5.002 5.002 0 01-4.54-2.89zm321.84-5.22a5.007 5.007 0 01-2.48-6.62 4.998 4.998 0 016.63-2.48 4.992 4.992 0 012.47 6.62 4.99 4.99 0 01-4.55 2.93 5.082 5.082 0 01-2.07-.45zm-294.36-6.85a4.996 4.996 0 012.85-6.47 4.992 4.992 0 016.47 2.85 4.995 4.995 0 01-2.85 6.47 4.964 4.964 0 01-1.81.34 5 5 0 01-4.66-3.19zm266.97-4.32a5.006 5.006 0 01-3.01-6.4 5.01 5.01 0 016.4-3.01 5.001 5.001 0 013.01 6.4 5.01 5.01 0 01-4.7 3.31 5.037 5.037 0 01-1.7-.3zm-238.76-5.92a5.005 5.005 0 013.29-6.26 5.001 5.001 0 016.26 3.29 5.004 5.004 0 01-3.28 6.26 5.208 5.208 0 01-1.5.23 5.019 5.019 0 01-4.77-3.52zm210.55-2.95a5.013 5.013 0 01-3.53-6.13 5.013 5.013 0 016.13-3.53 4.998 4.998 0 013.53 6.13 5.004 5.004 0 01-4.83 3.7 4.884 4.884 0 01-1.3-.17zm-181.7-5.31a4.995 4.995 0 013.72-6.01 5.002 5.002 0 016.01 3.72 4.994 4.994 0 01-3.72 6.01 4.52 4.52 0 01-1.15.14 4.992 4.992 0 01-4.86-3.86zm152.86-1.13a5.008 5.008 0 01-4.05-5.8 5.004 5.004 0 015.81-4.04 5.004 5.004 0 014.04 5.8 5 5 0 01-4.92 4.12 5.23 5.23 0 01-.88-.08zm-123.5-5.01a5.006 5.006 0 014.17-5.72 5.002 5.002 0 015.71 4.16 5 5 0 01-4.16 5.72 5.212 5.212 0 01-.78.06 5.01 5.01 0 01-4.94-4.22zm94.2 1.07a4.993 4.993 0 01-4.52-5.43 4.993 4.993 0 015.43-4.52 5.002 5.002 0 014.53 5.43 5.014 5.014 0 01-4.98 4.55 3.717 3.717 0 01-.46-.03zm-64.45-4.96a4.996 4.996 0 014.6-5.37v.01a4.996 4.996 0 015.37 4.6 4.995 4.995 0 01-4.6 5.36v.01c-.13.01-.26.01-.39.01a4.994 4.994 0 01-4.98-4.62zm34.92 3.55a5.009 5.009 0 01-4.97-5.03 5.002 5.002 0 015.03-4.97 4.99 4.99 0 014.97 5.03 4.995 4.995 0 01-5 4.97h-.03z"/><path class="cls-7" d="M893.518 799.58l57.11 41.818 7.66-70.368-64.77 28.55z"/><path class="cls-7" d="M895.649 799.812l-64.771 28.55 7.66-70.368 57.111 41.818z"/><circle class="cls-7" cx="893.948" cy="799.627" r="9.119"/><circle class="cls-6" cx="883.541" cy="873.281" r="9.957"/><circle class="cls-6" cx="878.314" cy="910.345" r="9.957"/><circle class="cls-6" cx="873.583" cy="949.242" r="9.957"/><path class="cls-23" d="M1644.395 43.122l7.595 6.648 16.61 15.004 21.458 19.198 14.666 12.862 15.035 13.699 13.739 12.27 5.698-10.508.156-.402a10.977 10.977 0 019.552-5.543l-1.065-6.195a3.045 3.045 0 01-1.887-.502 3.049 3.049 0 114.152-1.163c-.312.804-1.149 1.173-1.986 1.542l1.065 6.195a10.139 10.139 0 015.382 1.626 9.391 9.391 0 012.87 2.733l4.99-1.532a3.087 3.087 0 01.255-2.445 3.05 3.05 0 015.315 2.988 3.279 3.279 0 01-4.152 1.164 4.333 4.333 0 01-1.296-1.429l-4.989 1.533a11.55 11.55 0 01.333 12.849l-6.625 9.917 35.933 13.484 36.614 13.517 19.049 6.932 10.329 3.777 9.524 3.466a61.009 61.009 0 01-78.31 35.517 62.111 62.111 0 01-19.097-11.575c2.564 11.865 3.989 21.9 3.478 26.79a30.123 30.123 0 11-59.884-6.591c1.176-10.182 15.602-40.199 26.784-62.455l-.591.927-5.877 8.589-.591.927-7.06 10.442-.591.927-6.19 9.393-.59.927-6.937 10.721-.591.927-6.19 9.393-.59.927-3.235 4.757-.59.927-1.462 1.977c-1.773 2.781-5.49 3.42-8.427 2.049a6.558 6.558 0 01-2.327-8.304l1.059-2.133.59-.927 2.71-5.193.59-.927 5.386-9.705.591-.927 6.01-11.312.591-.927 5.386-9.705.59-.927 6.133-11.033.591-.927 4.204-7.85.59-.928 2.398-4.389c-14.365 20.327-36.003 49.858-44.628 55.992a30.203 30.203 0 11-33.747-50.101c4.096-2.805 13.672-6.027 25.447-9.55a59.937 59.937 0 01-19.097-11.576c-24.575-22.489-26.81-60.823-4.846-85.832zM1512.008 498.851l5.821-1.982 12.975-4.193 16.665-5.473 11.253-3.82 11.807-3.76 10.658-3.51-3.808-6.207-.165-.205a6.687 6.687 0 01-.015-6.728l-3.592-1.325a1.855 1.855 0 01-.84.843 1.857 1.857 0 11.651-2.545 2.001 2.001 0 01.209 1.517l3.592 1.326a6.177 6.177 0 012.498-2.344 5.721 5.721 0 012.316-.683l.711-3.099a1.88 1.88 0 01-1.212-.879 1.857 1.857 0 013.196-1.894 1.998 1.998 0 01-.651 2.545 2.64 2.64 0 01-1.148.249l-.711 3.099a7.036 7.036 0 016.88 3.738l3.214 6.516 18.06-14.85 18.283-15.2 9.46-7.939 5.139-4.298 4.73-3.97a37.167 37.167 0 01-5.116 52.134 37.838 37.838 0 01-11.923 6.55c7.04 2.26 12.769 4.566 15.193 6.325a18.351 18.351 0 01-21.718 29.586c-5.014-3.722-16.456-20.476-24.792-33.155l.309.595 2.74 5.717.31.594 3.359 6.905.309.594 3.07 6.127.309.594 3.543 6.925.31.594 3.07 6.127.308.594 1.525 3.156.31.594.597 1.373a4.036 4.036 0 01-1.486 5.07 3.995 3.995 0 01-5.09-1.302l-.802-1.208-.31-.594-1.914-3.011-.309-.595-3.48-5.797-.308-.594-4.138-6.617-.31-.594-3.479-5.797-.309-.594-3.953-6.596-.309-.595-2.861-4.609-.31-.594-1.585-2.601c6.349 13.77 15.338 34.18 15.947 40.6a18.4 18.4 0 11-36.712 2.543c-.232-3.015.985-9.048 2.712-16.334a36.514 36.514 0 01-11.923 6.55 37.525 37.525 0 01-46.76-23.589zM151.058 456.14l4.684 5.09 10.208 11.45 13.201 14.667 9.042 9.848 9.232 10.444 8.454 9.376 4.659-6.738.136-.263a7.523 7.523 0 016.918-3.07l-.268-4.3a2.087 2.087 0 01-1.248-.481 2.09 2.09 0 112.915-.486 2.251 2.251 0 01-1.467.904l.267 4.3a6.948 6.948 0 013.547 1.505 6.436 6.436 0 011.754 2.074l3.512-.675a2.115 2.115 0 01.355-1.647 2.09 2.09 0 013.4 2.429 2.247 2.247 0 01-2.914.486 2.97 2.97 0 01-.778-1.069l-3.512.676a7.916 7.916 0 01-.723 8.779l-5.247 6.267 23.486 11.843 23.947 11.916 12.467 6.13 6.758 3.338 6.234 3.065a41.812 41.812 0 01-55.981 18.412 42.567 42.567 0 01-12.157-9.298c.87 8.273 1.1 15.216.39 18.51a20.645 20.645 0 11-40.315-8.917c1.555-6.85 13.602-26.236 22.866-40.574l-.471.588-4.64 5.418-.471.587-5.582 6.594-.471.588-4.911 5.942-.472.588-5.518 6.792-.471.588-4.912 5.942-.471.588-2.555 3.002-.471.588-1.142 1.24a4.54 4.54 0 01-5.893.772 4.494 4.494 0 01-.972-5.83l.879-1.375.471-.588 2.23-3.338.471-.588 4.387-6.214.471-.588 4.93-7.263.472-.588 4.387-6.214.47-.588 4.995-7.064.47-.588 3.445-5.039.471-.588 1.958-2.813c-11.29 12.788-28.215 31.31-34.545 34.851a20.7 20.7 0 01-19.29-36.63c2.997-1.608 9.76-3.095 18.043-4.626a41.077 41.077 0 01-12.156-9.298 42.215 42.215 0 013.042-58.84zM1674.755 843.814a2.657 2.657 0 01-1.03-3.61 2.659 2.659 0 013.61-1.04 2.66 2.66 0 011.03 3.61 2.637 2.637 0 01-2.32 1.37 2.61 2.61 0 01-1.29-.33zm4.22-7.68a2.645 2.645 0 01-1.1-3.59 2.644 2.644 0 013.58-1.1 2.649 2.649 0 011.11 3.59 2.66 2.66 0 01-2.35 1.41 2.652 2.652 0 01-1.24-.31zm4.07-7.76a2.65 2.65 0 01-1.18-3.56 2.649 2.649 0 013.56-1.18 2.652 2.652 0 011.18 3.56 2.646 2.646 0 01-2.37 1.47 2.55 2.55 0 01-1.19-.29zm3.9-7.84a2.656 2.656 0 01-1.25-3.54 2.656 2.656 0 013.54-1.25 2.656 2.656 0 011.25 3.54 2.66 2.66 0 01-2.4 1.51 2.597 2.597 0 01-1.14-.26zm3.73-7.92a2.663 2.663 0 01-1.33-3.51 2.656 2.656 0 013.51-1.34 2.646 2.646 0 011.33 3.51 2.634 2.634 0 01-2.42 1.57 2.671 2.671 0 01-1.09-.23zm3.55-8.01a2.656 2.656 0 01-1.41-3.48 2.646 2.646 0 013.47-1.42 2.66 2.66 0 011.42 3.48 2.653 2.653 0 01-2.45 1.63 2.715 2.715 0 01-1.03-.21zm3.36-8.09a2.662 2.662 0 01-1.51-3.44 2.662 2.662 0 013.44-1.51 2.658 2.658 0 011.51 3.44 2.652 2.652 0 01-2.47 1.69 2.725 2.725 0 01-.97-.18zm3.15-8.18a2.653 2.653 0 01-1.6-3.4v.01a2.653 2.653 0 013.4-1.6 2.645 2.645 0 011.59 3.39 2.65 2.65 0 01-2.5 1.76 2.535 2.535 0 01-.89-.16zm2.92-8.25a2.667 2.667 0 01-1.7-3.36 2.662 2.662 0 013.36-1.69 2.655 2.655 0 011.69 3.35 2.662 2.662 0 01-2.52 1.83 2.614 2.614 0 01-.83-.13zm2.68-8.34a2.663 2.663 0 01-1.79-3.3 2.648 2.648 0 013.3-1.79 2.658 2.658 0 011.8 3.3 2.68 2.68 0 01-2.55 1.9 2.903 2.903 0 01-.76-.11zm2.44-8.42a2.655 2.655 0 01-1.9-3.24 2.655 2.655 0 013.24-1.9 2.67 2.67 0 011.9 3.25 2.657 2.657 0 01-2.57 1.98 2.567 2.567 0 01-.67-.09zm2.16-8.49a2.641 2.641 0 01-2-3.17 2.655 2.655 0 013.17-2.01 2.67 2.67 0 012.01 3.18 2.666 2.666 0 01-2.59 2.07 2.38 2.38 0 01-.59-.07zm1.87-8.55a2.66 2.66 0 01-2.11-3.11 2.65 2.65 0 013.1-2.11 2.658 2.658 0 012.12 3.1 2.653 2.653 0 01-2.61 2.16 2.885 2.885 0 01-.5-.04zm1.57-8.62a2.66 2.66 0 01-2.23-3.02 2.663 2.663 0 013.03-2.23 2.653 2.653 0 012.23 3.02 2.653 2.653 0 01-2.62 2.26 2.82 2.82 0 01-.41-.03zm1.25-8.67a2.659 2.659 0 01-2.35-2.93 2.669 2.669 0 012.94-2.35 2.645 2.645 0 012.34 2.93 2.658 2.658 0 01-2.63 2.37c-.1 0-.2-.01-.3-.02zm.9-8.71a2.668 2.668 0 01-2.46-2.84 2.653 2.653 0 012.83-2.46 2.654 2.654 0 012.47 2.83 2.662 2.662 0 01-2.65 2.47h-.19zm.54-8.75a2.656 2.656 0 01-2.58-2.72 2.66 2.66 0 012.73-2.59 2.658 2.658 0 012.58 2.73 2.654 2.654 0 01-2.65 2.58h-.08zm-2.53-11.36a2.66 2.66 0 012.61-2.71 2.67 2.67 0 012.7 2.61 2.657 2.657 0 01-2.61 2.7h-.05a2.638 2.638 0 01-2.65-2.6zm-.35-8.63a2.647 2.647 0 012.48-2.82 2.666 2.666 0 012.82 2.48 2.654 2.654 0 01-2.48 2.82 1.028 1.028 0 01-.17.01 2.651 2.651 0 01-2.65-2.49zm-.76-8.59a2.669 2.669 0 012.35-2.94 2.659 2.659 0 012.93 2.35 2.651 2.651 0 01-2.34 2.93c-.1.01-.2.02-.3.02a2.652 2.652 0 01-2.64-2.36zm-1.17-8.54a2.66 2.66 0 012.2-3.05 2.648 2.648 0 013.04 2.2 2.64 2.64 0 01-2.19 3.04 2.149 2.149 0 01-.43.04 2.66 2.66 0 01-2.62-2.23zm-1.6-8.47a2.67 2.67 0 012.04-3.16 2.67 2.67 0 013.16 2.04 2.67 2.67 0 01-2.04 3.16 2.738 2.738 0 01-.56.06 2.669 2.669 0 01-2.6-2.1zm-2.02-8.38a2.657 2.657 0 011.87-3.25 2.662 2.662 0 013.26 1.87 2.66 2.66 0 01-1.88 3.26 2.732 2.732 0 01-.69.09 2.654 2.654 0 01-2.56-1.97zm-2.46-8.26a2.65 2.65 0 011.71-3.34 2.637 2.637 0 013.34 1.7 2.652 2.652 0 01-1.7 3.35 2.6 2.6 0 01-.82.13 2.674 2.674 0 01-2.53-1.84zm-2.88-8.12a2.665 2.665 0 011.53-3.43 2.653 2.653 0 013.43 1.53 2.653 2.653 0 01-1.53 3.43 2.624 2.624 0 01-.95.18 2.668 2.668 0 01-2.48-1.71zm-3.3-7.96a2.646 2.646 0 011.35-3.5 2.644 2.644 0 013.5 1.34 2.655 2.655 0 01-1.34 3.51 2.595 2.595 0 01-1.08.23 2.658 2.658 0 01-2.43-1.58zm-3.71-7.78a2.65 2.65 0 011.16-3.57 2.664 2.664 0 013.57 1.16 2.659 2.659 0 01-1.16 3.58 2.753 2.753 0 01-1.2.29 2.648 2.648 0 01-2.37-1.46zm-4.11-7.57a2.658 2.658 0 01.97-3.63 2.652 2.652 0 013.63.98 2.65 2.65 0 01-.97 3.62 2.686 2.686 0 01-1.33.36 2.652 2.652 0 01-2.3-1.33zm-4.49-7.37a2.653 2.653 0 01.79-3.67 2.653 2.653 0 013.67.79 2.658 2.658 0 01-.79 3.67 2.656 2.656 0 01-1.44.43 2.637 2.637 0 01-2.23-1.22zm-4.86-7.13a2.659 2.659 0 01.61-3.71 2.654 2.654 0 013.7.61 2.65 2.65 0 01-.61 3.71 2.597 2.597 0 01-1.54.5 2.66 2.66 0 01-2.16-1.11zm-5.21-6.89a2.655 2.655 0 01.43-3.73 2.655 2.655 0 013.73.43 2.663 2.663 0 01-.42 3.73 2.654 2.654 0 01-1.66.57 2.656 2.656 0 01-2.08-1zm-5.53-6.63a2.658 2.658 0 01.25-3.75 2.65 2.65 0 013.75.25 2.668 2.668 0 01-.25 3.75 2.662 2.662 0 01-1.75.65 2.648 2.648 0 01-2-.9zm-5.84-6.37a2.665 2.665 0 01.07-3.76 2.665 2.665 0 013.76.08 2.653 2.653 0 01-.08 3.75 2.601 2.601 0 01-1.84.74 2.651 2.651 0 01-1.91-.81zm-6.14-6.1a2.653 2.653 0 01-.09-3.75 2.653 2.653 0 013.75-.1 2.665 2.665 0 01.1 3.76 2.65 2.65 0 01-1.93.82 2.663 2.663 0 01-1.83-.73zm-6.4-5.8a2.642 2.642 0 01-.27-3.75 2.648 2.648 0 013.74-.27 2.66 2.66 0 01.27 3.75 2.66 2.66 0 01-2.01.92 2.663 2.663 0 01-1.73-.65zm-6.67-5.51a2.649 2.649 0 01-.45-3.73 2.656 2.656 0 013.73-.44 2.654 2.654 0 01.44 3.73 2.652 2.652 0 01-2.08 1.01 2.637 2.637 0 01-1.64-.57zm-6.92-5.19a2.639 2.639 0 01-.62-3.7 2.65 2.65 0 013.7-.63 2.668 2.668 0 01.62 3.71 2.633 2.633 0 01-2.16 1.11 2.633 2.633 0 01-1.54-.49zm-7.16-4.83a2.645 2.645 0 01-.82-3.66 2.645 2.645 0 013.66-.82 2.647 2.647 0 01.82 3.66 2.637 2.637 0 01-2.24 1.24 2.64 2.64 0 01-1.42-.42zm-7.38-4.32a2.656 2.656 0 01-1.17-3.57 2.648 2.648 0 013.57-1.17 2.646 2.646 0 011.17 3.56 2.648 2.648 0 01-2.37 1.46 2.703 2.703 0 01-1.2-.28zM13.045 706.134a2.66 2.66 0 011.18-3.57 2.661 2.661 0 013.57 1.18 2.66 2.66 0 01-1.18 3.57 2.664 2.664 0 01-1.19.28 2.662 2.662 0 01-2.38-1.46zm7.82-3.96a2.643 2.643 0 011.13-3.58 2.653 2.653 0 013.58 1.13 2.653 2.653 0 01-1.13 3.58 2.682 2.682 0 01-1.22.3 2.652 2.652 0 01-2.36-1.43zm7.76-4.06a2.644 2.644 0 011.08-3.6 2.644 2.644 0 013.59 1.08 2.636 2.636 0 01-1.08 3.59 2.585 2.585 0 01-1.25.32 2.644 2.644 0 01-2.34-1.39zm7.7-4.18a2.646 2.646 0 011.02-3.61 2.67 2.67 0 013.62 1.03 2.658 2.658 0 01-1.03 3.61 2.622 2.622 0 01-1.29.34 2.658 2.658 0 01-2.32-1.37zm7.64-4.28a2.651 2.651 0 01.97-3.63 2.662 2.662 0 013.63.97 2.663 2.663 0 01-.98 3.63 2.624 2.624 0 01-1.32.36 2.652 2.652 0 01-2.3-1.33zm7.57-4.4a2.654 2.654 0 01.92-3.64 2.643 2.643 0 013.64.91 2.655 2.655 0 01-.92 3.64 2.568 2.568 0 01-1.36.38 2.66 2.66 0 01-2.28-1.29zm7.5-4.52a2.66 2.66 0 01.86-3.66 2.66 2.66 0 013.66.86 2.66 2.66 0 01-.86 3.66 2.66 2.66 0 01-1.4.4 2.668 2.668 0 01-2.26-1.26zm7.43-4.64a2.654 2.654 0 01.8-3.67 2.653 2.653 0 013.67.79 2.654 2.654 0 01-.8 3.67 2.597 2.597 0 01-1.43.43 2.653 2.653 0 01-2.24-1.22zm7.35-4.77a2.644 2.644 0 01.73-3.68 2.651 2.651 0 013.68.72 2.658 2.658 0 01-.73 3.69 2.643 2.643 0 01-1.47.45 2.636 2.636 0 01-2.21-1.18zm7.26-4.9a2.662 2.662 0 01.66-3.7 2.662 2.662 0 013.7.66 2.66 2.66 0 01-.66 3.7 2.704 2.704 0 01-1.52.48 2.66 2.66 0 01-2.18-1.14zm7.16-5.04a2.667 2.667 0 01.59-3.71 2.655 2.655 0 013.71.59 2.662 2.662 0 01-.58 3.71 2.69 2.69 0 01-1.56.51 2.65 2.65 0 01-2.16-1.1zm7.07-5.17a2.663 2.663 0 01.51-3.73 2.668 2.668 0 013.72.51 2.662 2.662 0 01-.51 3.73 2.66 2.66 0 01-1.6.54 2.666 2.666 0 01-2.12-1.05zm6.95-5.33a2.654 2.654 0 01.43-3.73 2.655 2.655 0 013.73.43 2.653 2.653 0 01-.42 3.73 2.655 2.655 0 01-1.65.58 2.67 2.67 0 01-2.09-1.01zm6.84-5.48a2.652 2.652 0 01.34-3.74 2.66 2.66 0 013.74.34 2.66 2.66 0 01-.34 3.74 2.624 2.624 0 01-1.7.62 2.647 2.647 0 01-2.04-.96zm6.7-5.64a2.637 2.637 0 01.25-3.74 2.658 2.658 0 013.75.24 2.667 2.667 0 01-.25 3.75 2.671 2.671 0 01-1.75.66 2.659 2.659 0 01-2-.91zm6.56-5.8a2.667 2.667 0 01.14-3.76 2.667 2.667 0 013.76.15 2.655 2.655 0 01-.15 3.75 2.618 2.618 0 01-1.8.71 2.654 2.654 0 01-1.95-.85zm6.39-5.99a2.653 2.653 0 01.04-3.75 2.644 2.644 0 013.75.03 2.656 2.656 0 01-.03 3.76 2.686 2.686 0 01-1.86.76 2.66 2.66 0 01-1.9-.8zm6.22-6.17a2.657 2.657 0 01-.09-3.76 2.653 2.653 0 013.75-.09 2.666 2.666 0 01.09 3.76 2.629 2.629 0 01-1.92.82 2.628 2.628 0 01-1.83-.73zm6-6.38a2.648 2.648 0 01-.22-3.75 2.657 2.657 0 013.75-.23 2.666 2.666 0 01.22 3.75 2.649 2.649 0 01-1.99.9 2.656 2.656 0 01-1.76-.67zm5.76-6.6a2.665 2.665 0 01-.39-3.74 2.664 2.664 0 013.74-.39 2.664 2.664 0 01.39 3.74 2.647 2.647 0 01-2.07.98 2.646 2.646 0 01-1.67-.59zm5.46-6.86a2.656 2.656 0 01-.6-3.71 2.664 2.664 0 013.71-.59 2.657 2.657 0 01.6 3.71 2.65 2.65 0 01-2.16 1.1 2.637 2.637 0 01-1.55-.51zm5.11-7.13a2.665 2.665 0 01-1.06-3.61 2.66 2.66 0 013.6-1.06 2.654 2.654 0 011.06 3.6 2.64 2.64 0 01-2.33 1.39 2.632 2.632 0 01-1.27-.32z"/></g></g></svg>