<?xml version="1.0"?>
<svg xmlns:rdf="http://www.w3.org/1999/02/22-rdf-syntax-ns#" xmlns="http://www.w3.org/2000/svg" xmlns:cc="http://web.resource.org/cc/" xmlns:dc="http://purl.org/dc/elements/1.1/" xmlns:svg="http://www.w3.org/2000/svg" id="svg2" viewBox="0 0 442 442" version="1.0">
  <g id="layer1" transform="translate(-258 -116.36)">
    <g id="g6044" fill-rule="evenodd">
      <path id="path2255" d="m588 485.36a221 221 0 1 1 -442 0 221 221 0 1 1 442 0z" transform="translate(112,-148)"/>
      <path id="path2259" d="m676.99 271.99c-29.66-3.14-70.58 25.02-78.03 46.96 4.26 9.54 1.85 19.1-2.4 21.9-5.42 3.5-11.15 3.63-10.59 10.29 0.18 9.58-1.35 19.86-9.76 32.84l-4.06-37.96c3.84-12.6 6.55-24.93-2.4-34.15 0.46-19.1 1.74-38.36-8.94-57.25-11.36-20.1-29.16-46.97-60.92-61.89-59.62-27.99-186.75 12.13-224.16 61.25 38.05-78.67 168.22-100.49 211.98-85.6 8.27-21.09 34.86-16.64 48.76-11.1-19.06-1.49-31.69 3.87-32.54 15.79l15.51 7.3c6.56-10.11 15.59-7.06 21.91-4.91-6.27 0.56-13.2 4.3-11.33 12.57 22.16 12.16 33.15 38.24 42.96 53.03 8.75-12.43 14.23-25.59 37.39-34.75-4.49-33.57-39.73-53.62-82.9-70.16 50.97 10.4 95.22 29.32 109.71 85.62-35.95-1.76-43.48 20.84-54.44 40.53 13.74-16.22 37.71-21.51 43.03-14.76-16.22 2.99-30.9 17.06-29.72 24.81 18.38-13.4 43.11-23.06 54.95-17.13-21.4 1.62-42.46 22.73-50.39 34.15 39.13-22.54 69.08-25.16 76.38-17.38zm-85.31 57.35c0.01-0.23 0-0.45 0-0.7 0-2.99-0.99-5.59-2.35-6.63-0.11-0.08-0.26-0.19-0.38-0.25-0.03-0.01-0.1-0.04-0.13-0.05-0.08-0.04-0.22-0.07-0.31-0.1-0.05-0.01-0.15-0.04-0.19-0.05-0.05-0.01-0.15 0-0.19 0h-0.19c-0.05 0-0.15-0.01-0.19 0-0.03 0.01-0.1-0.01-0.13 0-0.05 0.01-0.15 0.04-0.19 0.05-0.03 0.01-0.1 0.04-0.13 0.05-0.04 0.02-0.14 0.08-0.19 0.1-0.03 0.02-0.1 0.04-0.12 0.05-1.51 0.87-2.6 3.63-2.6 6.83 0 3.21 1.09 5.91 2.6 6.78 0.08 0.05 0.22 0.12 0.31 0.15 0.03 0.01 0.1 0.04 0.13 0.05 0.04 0.02 0.14 0.04 0.19 0.05 0.03 0.01 0.1 0 0.13 0 0.04 0.01 0.14 0.05 0.19 0.05h0.06c0.09 0 0.22-0.03 0.32-0.05 0.04-0.01 0.14-0.04 0.19-0.05 0.09-0.02 0.23-0.06 0.31-0.1 0.03-0.01 0.1-0.03 0.13-0.05 0.07-0.04 0.18-0.1 0.25-0.15 0.03-0.02 0.1-0.08 0.13-0.1 1.25-0.95 2.21-3.2 2.35-5.88z" fill="#fff"/>
      <path id="path2261" d="m564.86 323.47c2.01 5.59-0.41 13.52-4.88 22.53 12.18 22.79 6.23 34.81 1.63 47.63 9.21 0.82 18.41-3.18 27.62-10.94-4.63 8.37-12.3 20.99-38.18 21.88-10.54-7.93-8.67-15.87-11.37-23.81l10.56 10.3c12.9-13.06 7.86-29.28 1.62-45.7 5.1-6.09 10.03-12.43 13-21.89z" fill="#fff"/>
      <path id="path2263" d="m533.18 391.06c-14.63-13.04-19.77-27.95-17.06-44.42 3.18 6.09 5.66 13.01 12.99 14.16-6.8-13.73 5.34-28.75-8.12-43.12 6.11 0.77 11.49 5.04 15.44 16.09 17.83-27.45-7.27-59.23-38.19-53.43-0.46-5.9 30.05-15.28 52 4.51-10.45-11.63-24.67-40.05-63.45-43.79-9.92-0.96-65.41 5.37-80.59 20.17l-20.34-13.1c13.69-11.52 75.03-20.99 96.92-21.82 38.16-1.43 50.01 19.76 64.21 32.79 17.87 16.41 13.51 31.76 13.81 47.63-2.72 27.85-24.24 34.96-27.62 84.33z" fill="#fff"/>
      <path id="path2268" d="m506.92 214.31c-43.43-36.94-151.09 5.1-173.3 17.1-28.91 15.62-55.63 40.21-71.22 68.58-15.56 89.45 29.86 174.12 87.48 214.44 80.51 56.35 182.1 56.91 258.42-0.06 48.61-36.28 79.45-85.78 89.12-146.35 3.22 55.18-173.86 127.04-230.34 103.42 75.12-12.86 89.57-28.79 100.34-40.46-51.6-4.37-111.86-30.89-95.29-90.2 16.08-57.59-28.23-99.74-82.95-91.31 17.64-25.42 58.5-42.34 117.74-35.16z" fill="#fff"/>
      <path id="path2288" d="m279.9 405.69c29.66 3.14 70.58-25.02 78.02-46.95-4.26-9.54-1.84-19.1 2.41-21.9 5.42-3.5 11.15-3.63 10.59-10.29-0.18-9.59 1.34-19.86 9.76-32.85l4.05 37.97c-3.83 12.6-6.55 24.93 2.41 34.15-0.46 19.09-1.74 38.36 8.94 57.25 11.36 20.1 29.16 46.97 60.92 61.89 59.62 27.99 186.75-12.13 224.16-61.25-38.05 78.67-168.23 100.49-211.99 85.59-8.26 21.1-34.85 16.64-48.75 11.1 18.22-1.32 29.75-4.28 32.53-15.78l-15.5-7.3c-6.56 10.11-15.5 6.17-21.81 4.02 10.41-1.45 12.66-4.35 11.15-10.66-21.01-13.28-33.08-39.26-42.88-54.05-8.75 12.42-14.24 25.59-37.4 34.75 4.5 33.57 39.73 53.61 82.91 70.16-50.98-10.4-95.23-29.32-109.72-85.63 35.96 1.77 43.49-20.84 54.45-40.52-13.75 16.21-37.72 21.51-43.04 14.76 16.23-2.99 30.91-17.07 29.73-24.81-18.38 13.4-43.11 23.05-54.95 17.13 21.4-1.63 42.45-22.73 50.38-34.15-39.13 22.54-69.07 25.15-76.37 17.37zm85.31-57.35c-0.01 0.24 0 0.46 0 0.7 0 3 0.99 5.6 2.35 6.63 0.11 0.09 0.26 0.19 0.38 0.25 0.03 0.02 0.09 0.04 0.12 0.06 0.09 0.03 0.23 0.07 0.32 0.1 0.05 0.01 0.14 0.04 0.19 0.05 0.05 0 0.14-0.01 0.19 0h0.19c0.05-0.01 0.14 0 0.19 0 0.03-0.01 0.1 0 0.13 0 0.04-0.01 0.14-0.04 0.19-0.05 0.03-0.01 0.09-0.04 0.12-0.05 0.05-0.02 0.15-0.08 0.19-0.11 0.03-0.01 0.1-0.03 0.13-0.05 1.51-0.87 2.6-3.62 2.6-6.83 0-3.2-1.09-5.9-2.6-6.77-0.09-0.05-0.23-0.12-0.32-0.16-0.03-0.01-0.09-0.04-0.12-0.05-0.05-0.01-0.15-0.04-0.19-0.05-0.03 0-0.1 0.01-0.13 0-0.05 0-0.14-0.04-0.19-0.05h-0.06c-0.1 0-0.23 0.04-0.32 0.05-0.05 0.01-0.14 0.04-0.19 0.05-0.09 0.03-0.23 0.07-0.32 0.1-0.03 0.02-0.09 0.04-0.12 0.06-0.08 0.03-0.19 0.1-0.26 0.15-0.03 0.01-0.1 0.08-0.12 0.1-1.25 0.95-2.21 3.2-2.35 5.87z"/>
      <path id="path2290" d="m392.03 354.22c-2.01-5.59 0.4-13.52 4.87-22.53-12.17-22.79-6.22-34.81-1.62-47.64-9.21-0.81-18.42 3.18-27.62 10.95 4.63-8.37 12.3-20.99 38.18-21.89 10.54 7.94 8.66 15.88 11.37 23.82l-10.56-10.3c-12.9 13.06-7.86 29.27-1.62 45.7-5.1 6.08-10.03 12.43-13 21.89z"/>
      <path id="path2292" d="m423.71 286.63c14.63 13.03 19.76 27.95 17.06 44.41-3.18-6.08-5.67-13-13-14.16 6.81 13.73-5.33 28.75 8.13 43.13-6.11-0.78-11.49-5.04-15.44-16.09-17.83 27.45 7.27 59.23 38.18 53.42 0.46 5.9-30.04 15.29-51.99-4.5 10.44 11.63 24.67 40.05 63.44 43.78 9.93 0.96 65.42-5.36 80.6-20.16l20.33 13.1c-13.68 11.51-75.03 20.98-96.91 21.82-38.17 1.42-50.01-19.76-64.21-32.79-17.87-16.41-13.51-31.76-13.81-47.64 2.71-27.85 24.24-34.95 27.62-84.32z"/>
    </g>
  </g>
  <metadata>
    <rdf:RDF>
      <cc:Work>
        <dc:format>image/svg+xml</dc:format>
        <dc:type rdf:resource="http://purl.org/dc/dcmitype/StillImage"/>
        <cc:license rdf:resource="http://creativecommons.org/licenses/publicdomain/"/>
        <dc:publisher>
          <cc:Agent rdf:about="http://openclipart.org/">
            <dc:title>Openclipart</dc:title>
          </cc:Agent>
        </dc:publisher>
        <dc:title>Dring and Drang</dc:title>
        <dc:date>2006-12-26T00:00:00</dc:date>
        <dc:description>A ying and Yang sign made with a white and black dragon.</dc:description>
        <dc:source>http://openclipart.org/detail/3873/-by--3873</dc:source>
        <dc:creator>
          <cc:Agent>
            <dc:title>doctormo</dc:title>
          </cc:Agent>
        </dc:creator>
        <dc:subject>
          <rdf:Bag>
            <rdf:li>clip art</rdf:li>
            <rdf:li>clipart</rdf:li>
            <rdf:li>logo</rdf:li>
            <rdf:li>sign</rdf:li>
            <rdf:li>yang</rdf:li>
            <rdf:li>ying</rdf:li>
          </rdf:Bag>
        </dc:subject>
      </cc:Work>
      <cc:License rdf:about="http://creativecommons.org/licenses/publicdomain/">
        <cc:permits rdf:resource="http://creativecommons.org/ns#Reproduction"/>
        <cc:permits rdf:resource="http://creativecommons.org/ns#Distribution"/>
        <cc:permits rdf:resource="http://creativecommons.org/ns#DerivativeWorks"/>
      </cc:License>
    </rdf:RDF>
  </metadata>
</svg>
