<?xml version="1.0" encoding="iso-8859-1"?>
<!-- Generator: Adobe Illustrator 19.0.0, SVG Export Plug-In . SVG Version: 6.00 Build 0)  -->
<svg version="1.1" id="Layer_1" xmlns="http://www.w3.org/2000/svg" xmlns:xlink="http://www.w3.org/1999/xlink" x="0px" y="0px"
	 viewBox="0 0 512 512" style="enable-background:new 0 0 512 512;" xml:space="preserve">
<path style="fill:#FC870B;" d="M502.865,188.049C473.095,79.648,373.856,0,256,0C114.615,0,0,114.615,0,256
	c0,117.856,79.648,217.094,188.049,246.865L502.865,188.049z"/>
<path style="fill:#F72E12;" d="M512,256c0-23.529-3.191-46.309-9.135-67.951l-89.458-89.458L98.592,413.408l89.458,89.458
	c21.641,5.944,44.422,9.135,67.951,9.135C397.385,512,512,397.384,512,256z"/>
<path style="fill:#FFF3AD;" d="M256,33.391L144.696,256L256,478.609c122.943,0,222.609-99.665,222.609-222.609
	S378.943,33.391,256,33.391z"/>
<path style="fill:#FFFFFF;" d="M33.391,256c0,122.943,99.665,222.609,222.609,222.609V33.391
	C133.057,33.391,33.391,133.057,33.391,256z"/>
<path style="fill:#FFD23E;" d="M256,66.783L161.391,256L256,445.217c104.501,0,189.217-84.715,189.217-189.217
	S360.501,66.783,256,66.783z"/>
<path style="fill:#FFE376;" d="M66.783,256c0,104.503,84.716,189.217,189.217,189.217V66.783
	C151.499,66.783,66.783,151.497,66.783,256z"/>
<path style="fill:#FC870B;" d="M409.711,276.424c7.713-3.495,13.089-11.242,13.089-20.269c0-9.005-5.354-16.74-13.045-20.246
	c6.545-5.376,9.728-14.258,7.402-22.973c-2.337-8.693-9.517-14.781-17.853-16.184c4.931-6.879,5.721-16.284,1.202-24.097
	c-4.497-7.802-13.011-11.821-21.426-11.008c2.983-7.925,1.313-17.208-5.075-23.597c-6.367-6.367-15.627-8.047-23.541-5.087
	c0.835-8.426-3.194-16.963-11.008-21.471c-7.802-4.508-17.174-3.74-24.064,1.169c-1.38-8.359-7.469-15.549-16.184-17.887
	c-8.704-2.337-17.564,0.835-22.94,7.357c-3.495-7.713-11.242-13.089-20.269-13.089l-66.938,166.801L256,422.957
	c8.871-0.122,16.473-5.443,19.935-13.056c5.376,6.556,14.258,9.739,22.973,7.413c8.693-2.337,14.781-9.517,16.184-17.853
	c6.879,4.931,16.284,5.721,24.097,1.202c7.802-4.497,11.821-13.011,11.008-21.426c7.925,2.983,17.208,1.313,23.597-5.064
	c6.367-6.378,8.047-15.638,5.087-23.552c8.426,0.835,16.963-3.194,21.471-11.008c4.508-7.802,3.74-17.174-1.169-24.064
	c8.359-1.38,15.549-7.469,17.887-16.184C419.406,290.66,416.234,281.8,409.711,276.424z"/>
<path style="fill:#FDA409;" d="M256,89.043v333.913c-0.1,0-0.211,0-0.312,0c-9.027,0-16.774-5.376-20.269-13.089
	c-5.376,6.522-14.236,9.695-22.94,7.357c-8.715-2.337-14.803-9.528-16.184-17.887c-6.89,4.909-16.262,5.677-24.064,1.169
	c-7.814-4.508-11.843-13.045-11.008-21.471c-7.914,2.961-17.174,1.28-23.552-5.087c-6.378-6.389-8.058-15.672-5.064-23.597
	c-8.415,0.813-16.929-3.206-21.426-11.008c-4.519-7.814-3.729-17.219,1.202-24.097c-8.337-1.402-15.516-7.491-17.853-16.184
	c-2.326-8.715,0.857-17.597,7.402-22.973c-7.691-3.506-13.045-11.242-13.045-20.246c0-9.027,5.376-16.774,13.089-20.269
	c-6.522-5.376-9.695-14.236-7.357-22.94c2.337-8.715,9.528-14.803,17.887-16.184c-4.909-6.89-5.677-16.262-1.169-24.064
	c4.508-7.814,13.045-11.843,21.471-11.008c-2.961-7.914-1.28-17.174,5.087-23.552c6.378-6.378,15.672-8.058,23.597-5.064
	c-0.813-8.415,3.206-16.929,11.008-21.426c7.814-4.519,17.219-3.729,24.097,1.202c1.402-8.337,7.491-15.516,16.184-17.853
	c8.715-2.326,17.597,0.857,22.973,7.413C239.26,94.397,246.995,89.043,256,89.043z"/>
<path d="M390.003,122.203l-66.898,35.417l-35.417,66.898c5.827,5.827,14.078,7.728,21.504,5.743l55.897-14.967
	c9.125-2.442,17.754-7.228,24.914-14.387C411.736,179.173,411.736,143.937,390.003,122.203z"/>
<path style="fill:#3A160A;" d="M311.298,122.203c-7.16,7.16-11.945,15.789-14.387,24.914l-14.967,55.897
	c-1.985,7.427-0.083,15.677,5.743,21.504l102.315-102.315C368.268,100.47,333.031,100.47,311.298,122.203z"/>
<path style="fill:#FA690E;" d="M374.261,137.944l-43.285,27.544l-27.544,43.285l55.901-14.983
	c5.632-1.507,10.793-4.489,14.928-8.624C387.28,172.147,387.28,150.963,374.261,137.944z"/>
<path style="fill:#FC870B;" d="M327.039,137.944c-4.135,4.135-7.117,9.297-8.625,14.931l-14.983,55.898l70.83-70.83
	C361.242,124.925,340.058,124.925,327.039,137.944z"/>
<path d="M122.408,122.203l35.417,66.898l66.898,35.417c5.827-5.827,7.728-14.078,5.743-21.504L215.5,147.118
	c-2.442-9.125-7.228-17.754-14.387-24.914C179.379,100.47,144.141,100.47,122.408,122.203z"/>
<path style="fill:#3A160A;" d="M122.408,200.908c7.16,7.16,15.789,11.945,24.914,14.387l55.897,14.967
	c7.427,1.985,15.677,0.083,21.504-5.743L122.408,122.203C100.675,143.937,100.675,179.173,122.408,200.908z"/>
<path style="fill:#FA690E;" d="M138.149,137.944l27.544,43.285l43.285,27.544l-14.983-55.901
	c-1.507-5.632-4.489-10.793-8.624-14.928C172.353,124.925,151.168,124.925,138.149,137.944z"/>
<path style="fill:#FC870B;" d="M138.149,185.166c4.135,4.135,9.297,7.117,14.931,8.625l55.898,14.983l-70.83-70.83
	C125.129,150.963,125.129,172.147,138.149,185.166z"/>
<path style="fill:#FCB9B0;" d="M300.727,133.287h-33.391v-16.696V91.169h25.422c5.02,7.213,7.969,15.972,7.969,25.422V133.287z"/>
<g>
	<path style="fill:#FEDCD7;" d="M267.335,116.591h-11.13l-11.13-22.261l11.13-22.261c15.137,0,28.505,7.558,36.552,19.1
		L267.335,116.591z"/>
	<circle style="fill:#FEDCD7;" cx="284.026" cy="133.287" r="16.696"/>
</g>
<path style="fill:#FCB9B0;" d="M256.205,116.591h-11.13h-25.422V91.169c8.047-11.542,21.415-19.1,36.552-19.1V116.591z"/>
<path style="fill:#FEDCD7;" d="M245.074,133.287h-33.391v-16.696c0-9.45,2.95-18.209,7.969-25.422l25.422,25.422V133.287z"/>
<circle style="fill:#FFFFFF;" cx="228.374" cy="133.287" r="16.696"/>
<path d="M390.003,389.797l-66.898-35.417l-35.417-66.898c5.827-5.827,14.078-7.728,21.504-5.743l55.897,14.967
	c9.125,2.442,17.754,7.228,24.914,14.387C411.736,332.827,411.736,368.063,390.003,389.797z"/>
<path style="fill:#3A160A;" d="M311.298,389.797c-7.16-7.16-11.945-15.789-14.387-24.914l-14.967-55.897
	c-1.985-7.427-0.083-15.677,5.743-21.504l102.315,102.315C368.268,411.53,333.031,411.53,311.298,389.797z"/>
<path style="fill:#FA690E;" d="M374.261,374.056l-43.285-27.544l-27.544-43.285l55.901,14.983
	c5.632,1.507,10.793,4.489,14.928,8.624C387.28,339.853,387.28,361.037,374.261,374.056z"/>
<path style="fill:#FC870B;" d="M327.039,374.056c-4.135-4.135-7.117-9.297-8.625-14.931l-14.983-55.898l70.83,70.83
	C361.242,387.075,340.058,387.075,327.039,374.056z"/>
<path d="M122.408,389.797l35.417-66.898l66.898-35.417c5.827,5.827,7.728,14.078,5.743,21.504L215.5,364.882
	c-2.442,9.125-7.228,17.754-14.387,24.914C179.379,411.53,144.141,411.53,122.408,389.797z"/>
<path style="fill:#3A160A;" d="M122.408,311.092c7.16-7.16,15.789-11.945,24.914-14.387l55.897-14.967
	c7.427-1.985,15.677-0.083,21.504,5.743L122.408,389.797C100.675,368.063,100.675,332.827,122.408,311.092z"/>
<path style="fill:#FA690E;" d="M138.149,374.056l27.544-43.285l43.285-27.544l-14.983,55.901
	c-1.507,5.632-4.489,10.793-8.624,14.928C172.353,387.075,151.168,387.075,138.149,374.056z"/>
<path style="fill:#FC870B;" d="M138.149,326.834c4.135-4.135,9.297-7.117,14.931-8.625l55.898-14.983l-70.83,70.83
	C125.129,361.037,125.129,339.853,138.149,326.834z"/>
<path style="fill:#FCB9B0;" d="M300.727,378.713h-33.391v16.696v25.422h25.422c5.02-7.213,7.969-15.972,7.969-25.422V378.713z"/>
<g>
	<path style="fill:#FEDCD7;" d="M267.335,395.409h-11.13l-11.13,22.261l11.13,22.261c15.137,0,28.505-7.558,36.552-19.1
		L267.335,395.409z"/>
	<circle style="fill:#FEDCD7;" cx="284.026" cy="378.713" r="16.696"/>
</g>
<path style="fill:#FCB9B0;" d="M256.205,395.409h-11.13h-25.422v25.422c8.047,11.542,21.415,19.1,36.552,19.1V395.409z"/>
<path style="fill:#FEDCD7;" d="M245.074,378.713h-33.391v16.696c0,9.45,2.95,18.209,7.969,25.422l25.422-25.422V378.713z"/>
<circle style="fill:#FFFFFF;" cx="228.374" cy="378.713" r="16.696"/>
<path style="fill:#FCB9B0;" d="M378.918,300.522V267.13h16.696h25.422v25.422c-7.213,5.02-15.972,7.969-25.422,7.969H378.918z"/>
<g>
	<path style="fill:#FEDCD7;" d="M395.613,267.13V256l22.261-11.13L440.135,256c0,15.137-7.558,28.505-19.1,36.552L395.613,267.13z"
		/>
	<circle style="fill:#FEDCD7;" cx="378.913" cy="283.826" r="16.696"/>
</g>
<path style="fill:#FCB9B0;" d="M395.613,256v-11.13v-25.422h25.422c11.542,8.047,19.1,21.415,19.1,36.552H395.613z"/>
<path style="fill:#FEDCD7;" d="M378.918,244.87v-33.391h16.696c9.45,0,18.209,2.95,25.422,7.969l-25.422,25.422H378.918z"/>
<circle style="fill:#FFFFFF;" cx="378.913" cy="228.174" r="16.696"/>
<path style="fill:#FCB9B0;" d="M133.492,300.522V267.13h-16.696H91.374v25.422c7.213,5.02,15.972,7.969,25.422,7.969H133.492z"/>
<g>
	<path style="fill:#FEDCD7;" d="M116.796,267.13V256l-22.261-11.13L72.274,256c0,15.137,7.558,28.505,19.1,36.552L116.796,267.13z"
		/>
	<circle style="fill:#FEDCD7;" cx="133.487" cy="283.826" r="16.696"/>
</g>
<path style="fill:#FCB9B0;" d="M116.796,256v-11.13v-25.422H91.374c-11.542,8.047-19.1,21.415-19.1,36.552H116.796z"/>
<path style="fill:#FEDCD7;" d="M133.492,244.87v-33.391h-16.696c-9.45,0-18.209,2.95-25.422,7.969l25.422,25.422H133.492z"/>
<circle style="fill:#FFFFFF;" cx="133.487" cy="228.174" r="16.696"/>
<rect x="312.298" y="244.424" style="fill:#F72E12;" width="23.151" height="23.151"/>
<rect x="177.842" y="244.424" style="fill:#44702A;" width="23.151" height="23.151"/>
<rect x="245.07" y="311.652" style="fill:#F72E12;" width="23.151" height="23.151"/>
<rect x="245.07" y="177.197" style="fill:#44702A;" width="23.151" height="23.151"/>
<rect x="244.625" y="244.424" style="fill:#274E2D;" width="23.151" height="23.151"/>
<g>
</g>
<g>
</g>
<g>
</g>
<g>
</g>
<g>
</g>
<g>
</g>
<g>
</g>
<g>
</g>
<g>
</g>
<g>
</g>
<g>
</g>
<g>
</g>
<g>
</g>
<g>
</g>
<g>
</g>
</svg>
