<svg xmlns="http://www.w3.org/2000/svg" height="117" width="400"><rect id="backgroundrect" width="100%" height="100%" x="0" y="0" fill="none" stroke="none" data-darkreader-inline-fill="" data-darkreader-inline-stroke="" style="--darkreader-inline-fill:none; --darkreader-inline-stroke:none;" class=""/><g class="currentLayer" style=""><title>Layer 1</title><path d="M268.553,114.789 H257.99 c-2.146,0 -3.791,-1.154 -3.952,-3.2960000000000003 l-0.16800000000000004,-4.13 c-7.596,6.114 -16.672,9.409 -26.244,9.409 c-18.48,0 -26.067,-11.708 -26.067,-29.539 V38.424 c0,-2.807 1.649,-3.798 4.281,-3.798 h11.557 c2.6430000000000002,0 4.13,0.8210000000000001 4.13,3.798 v45.341 c0,9.08 2.309,15.347 12.214,15.347 c6.261,0 14.188,-3.461 19.139,-7.917 V38.424 c0,-2.807 1.488,-3.798 4.12,-3.798 h11.717 c2.644,0 4.132,0.8210000000000001 4.132,3.798 v71.748 c-0.0020000000000000005,3.463 -0.999,4.617 -4.296,4.617 zM0,37.918 c0,-1.975 0.992,-3.2960000000000003 2.9690000000000003,-3.2960000000000003 h13.96 c1.979,0 3.134,1.1560000000000001 3.134,3.2960000000000003 v72.746 c0,2.971 -1.326,4.125 -4.125,4.125 H4.292 c-2.9610000000000003,0 -4.292,-1.154 -4.292,-4.125 zm293.494,0 c0,-1.975 0.997,-3.2960000000000003 2.972,-3.2960000000000003 h13.959 c1.983,0 3.138,1.1560000000000001 3.138,3.2960000000000003 v72.746 c0,2.971 -1.322,4.125 -4.131,4.125 h-11.646 c-2.962,0 -4.292,-1.154 -4.292,-4.125 zM108.52,114.789 H96.64 c-2.9690000000000003,0 -3.958,-1.483 -3.958,-4.292 V65.61 c0,-9.071 -2.471,-15.509 -12.543,-15.509 c-6.438,0 -14.355,3.472 -19.47,7.921 v52.641 c0,2.813 -1.1560000000000001,4.125 -3.956,4.125 H44.662 c-2.476,0 -3.963,-1.312 -3.963,-3.959 V38.767 c0,-2.6420000000000003 1.163,-4.125 4.129,-4.125 h10.721 c2.309,0 3.803,0.6570000000000001 3.963,3.132 l0.16300000000000003,4.405 c7.597,-6.101 17.168,-9.564 26.74,-9.564 c18.482,0 26.071,11.549 26.071,29.536 v48.346000000000004 c-0.0010000000000000002,2.809 -0.988,4.292 -3.966,4.292 zm58.813,-102.684 C167.333,5.42 161.918,0 155.232,0 c-6.682,0 -12.105,5.42 -12.105,12.105 c0,6.6850000000000005 5.424,12.099 12.105,12.099 c6.686,0 12.101,-5.414 12.101,-12.099 zm17.223,22.517 c1.979,0 3.135,0.6570000000000001 3.135,2.805 v11.621 c0,1.979 -1.318,3.135 -3.302,3.135 h-19.125 v58.48 c0,2.971 -1.319,4.125 -4.292,4.125 h-11.483 c-2.971,0 -4.288,-1.154 -4.288,-4.125 v-58.48 h-19.13 c-1.979,0 -3.299,-1.1560000000000001 -3.299,-3.135 V37.427 c0,-2.148 1.154,-2.805 3.136,-2.805 zm187.558,-22.517 C372.114,5.42 366.694,0 360.009,0 c-6.682,0 -12.102,5.42 -12.102,12.105 c0,6.6850000000000005 5.42,12.099 12.102,12.099 c6.6850000000000005,0 12.105,-5.414 12.105,-12.099 zm17.222,22.517 c1.975,0 3.129,0.6570000000000001 3.129,2.805 v11.621 c0,1.979 -1.315,3.135 -3.301,3.135 h-19.125 v58.48 c0,2.971 -1.315,4.125 -4.288,4.125 h-11.486 c-2.972,0 -4.288,-1.154 -4.288,-4.125 l-0.004000000000000001,-58.48 h-19.12 c-1.984,0 -3.305,-1.1560000000000001 -3.305,-3.135 V37.427 c0,-2.148 1.159,-2.805 3.133,-2.805 zm5.229,69.996 c2.917,0 5.357,2.299 5.357,5.315 c0,3.069 -2.44,5.374 -5.357,5.374 c-2.93,0 -5.3870000000000005,-2.305 -5.3870000000000005,-5.374 c0.0010000000000000002,-3.016 2.458,-5.315 5.3870000000000005,-5.315 zm0,9.905 c2.475,0 4.388,-1.971 4.388,-4.59 c0,-2.556 -1.913,-4.531 -4.388,-4.531 c-2.502,0 -4.418,1.976 -4.418,4.531 c0,2.62 1.916,4.59 4.418,4.59 zm-2.086,-7.691 h2.412 c1.488,0 2.19,0.5860000000000001 2.19,1.7890000000000001 c0,1.123 -0.7110000000000001,1.602 -1.645,1.6990000000000003 l1.7890000000000001,2.7600000000000002 h-1.046 l-1.6990000000000003,-2.6910000000000003 h-1.031 v2.6910000000000003 h-0.971 v-6.248 zm0.97,2.7720000000000002 h1.017 c0.8580000000000001,0 1.6420000000000001,-0.04000000000000001 1.6420000000000001,-1.026 c0,-0.8310000000000001 -0.7110000000000001,-0.9570000000000001 -1.37,-0.9570000000000001 h-1.288 v1.983 z" fill="#7e7f82" id="svg_1" data-darkreader-inline-fill="" style="--darkreader-inline-fill:#60686c; --darkreader-inline-stroke:#e8e6e3;" class="selected" fill-opacity="1" stroke="#ffffff" stroke-opacity="1" data-darkreader-inline-stroke=""/></g></svg>