<?xml version="1.0" encoding="iso-8859-1"?>
<!-- Generator: Adobe Illustrator 19.0.0, SVG Export Plug-In . SVG Version: 6.00 Build 0)  -->
<svg version="1.1" id="Layer_1" xmlns="http://www.w3.org/2000/svg" xmlns:xlink="http://www.w3.org/1999/xlink" x="0px" y="0px"
	 viewBox="0 0 512 512" style="enable-background:new 0 0 512 512;" xml:space="preserve">
<g transform="translate(1 1)">
	<polygon style="fill:#E2E3E5;" points="272.965,502.018 461.596,502.018 461.596,214.579 272.965,214.579 	"/>
	<polygon style="fill:#F0F0F0;" points="255,502.018 461.596,502.018 461.596,448.123 255,448.123 	"/>
	<path style="fill:#E2E3E5;" d="M362.789,232.544H138.228V112.179c0-57.488,50.302-104.197,112.281-104.197
		s112.281,46.709,112.281,104.197V232.544z M156.193,214.579h188.632v-102.4c0-47.607-42.218-86.232-94.316-86.232
		s-94.316,38.625-94.316,86.232V214.579z"/>
	<polygon style="fill:#CCCCCC;" points="246.018,502.018 434.649,502.018 434.649,214.579 246.018,214.579 	"/>
	<polygon style="fill:#FFFFFF;" points="57.386,502.018 246.018,502.018 246.018,214.579 57.386,214.579 	"/>
	<polygon style="fill:#E2E3E5;" points="84.333,502.018 407.702,502.018 407.702,214.579 84.333,214.579 	"/>
	<path style="fill:#E0E0E0;" d="M246.018,394.228L246.018,394.228c-14.372,0-26.947-11.677-26.947-26.947v-53.895
		c0-15.27,12.575-26.947,26.947-26.947l0,0c14.372,0,26.947,11.677,26.947,26.947v53.895
		C272.965,382.551,260.389,394.228,246.018,394.228"/>
	<path style="fill:#F0F0F0;" d="M225.358,287.337c-0.898,2.695-2.695,4.491-6.288,5.389v92.519c0.898,0,1.796,0,1.796,0
		c5.389,0,8.084,3.593,8.982,7.186c8.982-4.491,16.168-13.474,16.168-24.253v-53.895
		C246.018,300.811,237.035,290.032,225.358,287.337"/>
	<polygon style="fill:#E0E0E0;" points="228.053,502.018 434.649,502.018 434.649,448.123 228.053,448.123 	"/>
	<polygon style="fill:#FFFFFF;" points="57.386,502.018 263.982,502.018 263.982,448.123 57.386,448.123 	"/>
	<polygon style="fill:#F0F0F0;" points="84.333,502.018 407.702,502.018 407.702,448.123 84.333,448.123 	"/>
	<g>
		<path style="fill:#B6B6B6;" d="M434.649,511H57.386c-5.389,0-8.982-3.593-8.982-8.982V214.579c0-5.389,3.593-8.982,8.982-8.982
			h377.263c5.389,0,8.982,3.593,8.982,8.982v287.439C443.632,507.407,440.039,511,434.649,511z M66.368,493.035h359.298V223.561
			H66.368V493.035z"/>
		<path style="fill:#B6B6B6;" d="M344.825,223.561H138.228c-5.389,0-8.982-3.593-8.982-8.982V103.196
			C129.246,45.709,179.547-1,241.526-1s112.281,46.709,112.281,104.196v111.382C353.807,219.968,350.214,223.561,344.825,223.561z
			 M147.211,205.596h188.632v-102.4c0-47.607-42.218-86.232-94.316-86.232s-94.316,38.625-94.316,86.232V205.596z"/>
		<path style="fill:#B6B6B6;" d="M246.018,403.211c-19.761,0-35.93-16.168-35.93-35.93v-53.895c0-19.761,16.168-35.93,35.93-35.93
			s35.93,16.168,35.93,35.93v53.895C281.947,387.042,265.779,403.211,246.018,403.211z M246.018,295.421
			c-9.881,0-17.965,8.084-17.965,17.965v53.895c0,9.881,8.084,17.965,17.965,17.965s17.965-8.084,17.965-17.965v-53.895
			C263.982,303.505,255.898,295.421,246.018,295.421z"/>
		<path style="fill:#B6B6B6;" d="M434.649,511H57.386c-5.389,0-8.982-3.593-8.982-8.982v-53.895c0-5.389,3.593-8.982,8.982-8.982
			h377.263c5.389,0,8.982,3.593,8.982,8.982v53.895C443.632,507.407,440.039,511,434.649,511z M66.368,493.035h359.298v-35.93
			H66.368V493.035z"/>
	</g>
</g>
<g>
</g>
<g>
</g>
<g>
</g>
<g>
</g>
<g>
</g>
<g>
</g>
<g>
</g>
<g>
</g>
<g>
</g>
<g>
</g>
<g>
</g>
<g>
</g>
<g>
</g>
<g>
</g>
<g>
</g>
</svg>
